<?xml version="1.0" encoding="utf-8"?>
<!-- Generator: Adobe Illustrator 26.0.0, SVG Export Plug-In . SVG Version: 6.00 Build 0)  -->
<svg version="1.1" id="Layer_1" xmlns="http://www.w3.org/2000/svg" xmlns:xlink="http://www.w3.org/1999/xlink" x="0px" y="0px"
	 viewBox="0 0 48.7 82.6" style="enable-background:new 0 0 48.7 82.6;" xml:space="preserve">
<style type="text/css">
	.st0{fill:#513C54;}
	.st1{fill:#A676A8;}
	.st2{fill:#C75656;}
	.st3{fill:#530909;}
	.st4{fill:#861515;}
	.st5{fill:#323038;}
	.st6{fill:#101010;}
	.st7{fill:#585662;}
	.st8{fill:#BA1010;}
	.st9{fill:#7C1010;}
	.st10{fill:#DF7474;}
	.st11{fill:#8A3519;}
	.st12{fill:#4D5768;}
	.st13{fill:#656E7E;}
	.st14{fill:#CDD1DB;}
	.st15{fill:#BC89BC;}
	.st16{fill:#C0721E;}
	.st17{fill:#613D11;}
	.st18{fill:#91452C;}
	.st19{fill:#DE5E5B;}
	.st20{fill:#0F1B7A;}
	.st21{fill:#192CA1;}
	.st22{fill:#0E185A;}
	.st23{fill:#FFFFFF;}
	.st24{fill:#3648A2;}
	.st25{fill:#F0ECB5;}
	.st26{fill:#503C20;}
	.st27{fill:#6C573A;}
	.st28{fill:#D7A86D;}
	.st29{fill:#3C4350;}
	.st30{fill:#50645E;}
	.st31{fill:#384541;}
	.st32{fill:#707784;}
</style>
<path class="st0" d="M11,11.2c-3.4,7.8-5.9,7.6-6,7.7c-1.5,0.3-3-0.5-3.6-1.9l0.9-0.4c0.2,0.4,0.5,0.8,0.9,1.1
	c0.5,0.3,1.1,0.5,1.7,0.4c0.4-0.1,0.7-0.2,1-0.4c1.7-1.1,3.8-4.8,4.7-6.6L11,11.2z"/>
<path class="st0" d="M9.6,31.7c-3.4,7.8-5.9,7.6-6,7.7c-1.5,0.3-3-0.5-3.6-1.9l0.9-0.4c0.2,0.4,0.5,0.8,0.9,1.1
	c0.5,0.3,1.1,0.5,1.6,0.4c0.4-0.1,0.7-0.2,1-0.4c1.7-1.1,3.8-4.8,4.7-6.7L9.6,31.7z"/>
<path class="st1" d="M14.3,11c0,0-3.6,1.1-3.3-1c0,0,1.7-6.6,4.7-8.1S23.4,0,23.4,0L14.3,11z"/>
<path class="st2" d="M35.9,34.9c0,0,2.5,0.2,3-0.8c0.3-0.7,2.8-1.5,2.8-1.5l0.8,3.6l-2.4,0.9l-2.7,0.2L35.9,34.9z"/>
<rect x="44.1" y="38.2" transform="matrix(0.9852 -0.1716 0.1716 0.9852 -8.787 8.4248)" class="st3" width="0.6" height="33.7"/>
<polygon class="st4" points="47.3,71.6 47.1,71.7 41.3,38.5 41.6,38.4 "/>
<rect x="47" y="71.2" transform="matrix(0.9852 -0.1712 0.1712 0.9852 -11.7219 9.1833)" class="st5" width="0.8" height="2.6"/>
<polygon class="st6" points="48,74.3 47.4,74.4 47.3,73.9 47.9,73.8 "/>
<polygon class="st5" points="48.7,78.8 48.3,78.9 47.2,74.3 48.1,74.2 "/>
<polygon class="st7" points="48.7,80 48.3,78.9 48.6,78.8 "/>
<path class="st6" d="M40.7,31.2c0,0.3,0,0.6,0.1,0.9c0.2,0.7,0.4,1.4,0.3,2.1c0,0.6,0.1,1.2,0.4,1.7c0.2,0.5,0.4,1.1,0.4,1.7l-0.2,1
	l-0.6,0.1l-0.5-0.8l-1.8-7.4l1.9-0.3l0.1,0.5C40.7,30.5,40.7,30.8,40.7,31.2z"/>
<path class="st8" d="M41.9,37.5c-1,0-1.6-2.8-1.7-4.5c-0.1-0.6,0.1-1.3,0.4-1.8c0,0.3,0,0.6,0.1,0.9c0.2,0.7,0.4,1.4,0.3,2.1
	c0,0.6,0.1,1.2,0.4,1.7C41.7,36.3,41.8,36.9,41.9,37.5z"/>
<path class="st9" d="M40.5,32.4c0-0.4,0-0.7,0.1-1c-0.3,0.5-0.4,1.1-0.3,1.7c0.1,1.7,0.7,4.5,1.7,4.5c0-0.3-0.1-0.5-0.1-0.8
	C41,36.1,40.6,33.8,40.5,32.4z"/>
<path class="st7" d="M47.4,72.5c0.1,0.6,0.1,1,0,1.1s-0.2-0.4-0.3-1s-0.1-1,0-1S47.3,71.9,47.4,72.5z"/>
<path class="st10" d="M41.7,32.6c-0.8-0.1-1.6,0.1-2.3,0.5c-0.9,0.7,1.9,0.1,1.6,0.4s-1.8,1.1-1.4,1.4s2-0.8,2-0.5s-1.7,1-1.2,1.3
	s1.5-0.4,1.6-0.2s-1.3,0.7-0.8,0.8s1.3,0.2,1.6,0c0.3-0.3,0.4-0.8,0.2-1.3c-0.1-0.4,0.1-0.6-0.5-1.3C42.3,33.2,42,32.9,41.7,32.6z"
	/>
<path class="st11" d="M33.2,20.7c0,0,1.3-0.6,2.1,2.8s-1.9,7.8-1.1,9.2s5,0.8,5,0.8l0.1,4.1c-2.3,0.4-4.5,0.5-6.8,0.3
	c-2.2-0.4-3.3-2.3-3-4.8S33.2,20.7,33.2,20.7z"/>
<path class="st12" d="M24.3,48.1L20.5,63c0,0-8.2,13.5-8.2,17.5l-2.6-1.4c0,0,2.5-18,6.4-20.8l0.8-17.4L24.3,48.1z"/>
<path class="st13" d="M16.9,44.2l9.9,15.5c0,0,0.9,7.6,4.6,11.3c2.7,2.9,5,6,6.8,9.5l2.3-0.8l-7.7-19.7l-6.7-16.3L16.9,44.2z"/>
<path class="st14" d="M40.6,79.8c-3.4-7.6-10-24.8-11.1-27.8C32.3,57.9,37.1,69.6,40.6,79.8z"/>
<path class="st15" d="M23.4,0c0,0,7.1,1.2,8,5s-8.8,16-8,22.1s-2.5,12.1-8.8,13.7s-9.2-1-10.2-5.4s-1-7.7,1.4-14.8
	c1.9-5.4,4.8-10.4,8.5-14.7C17,2.4,23.4,0,23.4,0z"/>
<path class="st1" d="M31.4,5c-0.2-0.7-0.5-1.3-1-1.7c-4.1,0.6-9,1.8-9.7,4.2c-1.2,4.1-0.3,13.1-4.6,19.1c-3.6,5-5.9,10.9-6.4,14.7
	c1.6,0.2,3.3,0.1,4.8-0.4c6.3-1.6,9.7-7.6,8.8-13.8S32.2,8.7,31.4,5z"/>
<path class="st16" d="M29.7,15.8c0,0-1.4-0.8-8.4,6.3s-6.2,24.1-6.2,24.1s5.2,3.3,9.6,3.3s5.5-0.8,5.5-0.8s0-13.1,2.5-19.3
	C36.3,20.6,32.5,15.8,29.7,15.8z"/>
<path class="st17" d="M32.7,20.9l-0.1-1.2c0,0.1-1.7,11-3.3,14.7c-1.5,3.5-1.2,8.9-1.2,14.9l0.5-0.1c0-6-0.3-11.3,1.2-14.7
	C31.4,30.8,32.6,21.3,32.7,20.9z"/>
<path class="st18" d="M26.2,8.8c1.1,0.8,1.9,1.7,2.6,2.9c0.8,1.7,7.1,5.1,7.1,5.1s-3.6,0.9-3.7,1s-7.1-3-7.1-3L26.2,8.8z"/>
<path class="st10" d="M31.7,17.8c0.1-0.5,0.2-1,0.3-1.7c0.2-1.1,0.3-1.9,0.3-1.9L29.6,13c0,0-0.4,1.8-0.7,3.2
	C28.7,17.1,31.6,18.2,31.7,17.8z"/>
<path class="st19" d="M29.6,13l-0.2,0.8c0.3,0.4,0.6,0.8,1,1.1c0.5,0.5,1,0.9,1.6,1.2c0.2-1.1,0.3-1.9,0.3-1.9L29.6,13z"/>
<path class="st20" d="M36.2,9.1c0,0-2.4,2.4-3.3,2.6S30,12.3,30,12.3s-1.1,3.5-1.2,4.3c0,0-3.5-0.8-1.5-6.3c0.8-2.1,1.2-3.5,3.5-4.2
	C33.2,5.5,35.5,6.8,36.2,9.1C36.2,9.1,36.2,9.1,36.2,9.1z"/>
<path class="st10" d="M34.5,8.3c0,0,1.5,0.6,1.5,1.8c0,0.7-0.1,1.5-0.3,2.2c-0.1,1.1-0.4,2.1-1,3c-0.8,1.5-3,0.4-4.2-0.8
	c-1.3-1.4-1.4-1.8-1.2-3.8S32.2,7.2,34.5,8.3z"/>
<path class="st21" d="M34.1,13.5c0-0.2,0.2,0,0.7-0.5c-0.1-0.3-0.2-0.5-0.2-0.8c0,0.3,0.2,0.6,0.4,0.8
	C34.8,13.3,34.5,13.5,34.1,13.5L34.1,13.5C34.1,13.6,34.1,13.5,34.1,13.5C34.1,13.5,34.1,13.5,34.1,13.5z"/>
<path class="st21" d="M33.3,12.1c0.1,0.1,0.3,0.1,0.3,0c0.1-0.1,0.1-0.2,0-0.3c0,0,0,0,0,0c-0.1-0.1-0.3-0.1-0.3,0
	C33.2,11.9,33.2,12,33.3,12.1C33.2,12.1,33.3,12.1,33.3,12.1z"/>
<path class="st21" d="M35.3,12.3c0.1,0.1,0.3,0.1,0.3,0c0.1-0.1,0.1-0.2,0-0.3c0,0,0,0,0,0c-0.1-0.1-0.3-0.1-0.4,0
	C35.2,12,35.2,12.2,35.3,12.3C35.3,12.3,35.3,12.3,35.3,12.3z"/>
<path class="st22" d="M34.2,11.6c-0.3-0.1-0.6-0.1-0.9,0c-0.1,0-0.3,0.1-0.4,0.1c-0.1,0-0.3,0.1-0.4,0.2c0.1,0,0.3,0,0.4,0l0.4-0.1
	C33.7,11.7,33.9,11.7,34.2,11.6z"/>
<path class="st22" d="M36.1,11.8c-0.2,0-0.4,0-0.6,0c-0.1,0-0.2,0.1-0.3,0.1c-0.1,0-0.2,0.1-0.3,0.1c0.1,0,0.2,0,0.3,0
	c0.1,0,0.2-0.1,0.3-0.1C35.7,11.9,35.9,11.8,36.1,11.8z"/>
<path class="st22" d="M34.3,10.9l-0.1,0.3c-0.4-0.1-0.8,0-1.1,0.1C33,11.4,33.7,10.7,34.3,10.9z"/>
<path class="st22" d="M36,11l-0.1,0.3c-0.4-0.1-0.8,0-1.1,0.1C34.8,11.4,35.3,10.7,36,11z"/>
<path class="st23" d="M34.6,14.3c-0.5-0.1-1-0.3-1.5-0.5c0,0,0.5,1.1,1,1.1S34.6,14.3,34.6,14.3z"/>
<path class="st24" d="M36.1,7.4c0,0,1.2,0.3,0.9,1.4s-3.2,2.2-5.2,1.8c-0.7-0.1-0.8,0.3-1.1,0.5c-0.6,0.4-0.9,1.2-0.6,1.8
	c0.6,1.4,1.3,0.8,1.3,0.8s-0.6,0.8-2.3,0.2s-1.7-3-0.4-4.4c1.1-1,2.4-1.8,3.8-2.1C33.7,7,34.9,7,36.1,7.4z"/>
<path class="st10" d="M30.1,10.7c0.2,0,1,0.6,0.8,1.2s-0.5,0.6-1,0.3S29.6,10.6,30.1,10.7z"/>
<path class="st19" d="M30.7,11.5c0,0-0.4-0.5-0.6-0.3c-0.2,0.2-0.2,0.6,0,0.8c0,0,0.1,0,0.1,0.1C30.4,12.2,30.9,11.8,30.7,11.5z"/>
<path class="st19" d="M31.8,12.8c0,0.3,0.3,0.5,0.8,0.6s0.8-0.1,0.9-0.4s-0.3-0.5-0.8-0.6S31.9,12.5,31.8,12.8z"/>
<path class="st19" d="M35,13.2c0-0.2,0.3-0.4,0.7-0.4c-0.1,0.3-0.1,0.6-0.2,0.9C35.2,13.6,35,13.4,35,13.2z"/>
<path class="st25" d="M35.8,16.9c0,0-6.2-1.2-7.8-2.8c-1.8-1.8-1.9-5.2-1.9-5.2c-0.7,0-1.3,0.3-1.9,0.8c-0.7,0.7-4,7.6,3.2,7.1
	c3.3-0.2,5.2,4.1,5.2,4.1L35.8,16.9z"/>
<path class="st26" d="M25.9,16.1c0,0,2.7,2.2,1.6,6.7s-6.3,8.1-6.3,8.1v4c0,0,5.3-4.3,7.6-8.2c4.1-7.1-0.8-10.6-0.8-10.6L25.9,16.1z
	"/>
<path class="st27" d="M30.6,34.7c0,0,0.5-2.4-0.2-2.2s-1.7,2.4-1.7,2.4l0.9,1.2C29.5,36,30.3,35.9,30.6,34.7z"/>
<polygon class="st3" points="24.8,72.4 24.3,72.3 30.6,39.2 31.2,39.2 "/>
<polygon class="st4" points="24.7,72.3 24.4,72.3 30.8,39.2 31,39.2 "/>
<rect x="23.1" y="72.8" transform="matrix(0.1886 -0.9821 0.9821 0.1886 -52.0915 83.3284)" class="st5" width="2.6" height="0.8"/>
<polygon class="st6" points="24.3,75 23.8,74.9 23.8,74.4 24.4,74.6 "/>
<polygon class="st5" points="23.4,79.5 23,79.5 23.6,74.8 24.5,75 "/>
<polygon class="st7" points="23,80.6 23,79.5 23.3,79.5 "/>
<path class="st6" d="M32.8,32.2c-0.1,0.3-0.2,0.6-0.2,0.8c0,0.7-0.1,1.4-0.4,2c-0.2,0.5-0.3,1.1-0.3,1.7c0,0.6,0,1.1-0.2,1.7
	l-0.5,0.9l-0.5-0.1l-0.2-1l1-7.5l1.9,0.4l-0.1,0.5C33,31.5,32.9,31.8,32.8,32.2z"/>
<path class="st8" d="M31.7,38.5c-0.9-0.3-0.5-3.2,0-4.8c0.1-0.6,0.5-1.2,1.1-1.5c-0.1,0.3-0.2,0.6-0.2,0.8c0,0.7-0.1,1.4-0.4,2
	c-0.2,0.5-0.3,1.1-0.3,1.7C31.9,37.3,31.8,37.9,31.7,38.5z"/>
<path class="st9" d="M32.2,33.2c0.1-0.4,0.3-0.7,0.5-1c-0.5,0.4-0.8,0.9-0.9,1.5c-0.5,1.6-1,4.4,0,4.8c0.1-0.3,0.1-0.5,0.2-0.8
	C31.3,36.8,31.7,34.6,32.2,33.2z"/>
<path class="st7" d="M24.4,73.2c-0.1,0.6-0.3,1-0.4,1s-0.1-0.5,0-1.1s0.3-1,0.4-1S24.5,72.7,24.4,73.2z"/>
<path class="st10" d="M29.3,34.7c0,0,0-1,0.5-1.4s3.1,0.2,3.1,0.5s-0.4,0.7-0.2,0.9s0.2,0.3,0.2,0.7c-0.1,0.4-0.1,0.7-0.3,1
	C32.5,36.6,29.7,37.2,29.3,34.7z"/>
<path class="st28" d="M30.5,32.4c0,0-9.3,0.2-6.8-2s6-12.9,4.2-14.1c-1.2-0.8-2.8-0.5-3.7,0.7c-3.3,3.4-11.2,12-8,16.7
	c2.4,3.5,13.2,2.3,13.2,2.3C28.9,34.9,30.5,32.4,30.5,32.4z"/>
<path class="st25" d="M23.7,31.1c0.1-0.2,0.5-0.5,0.7-0.7c2.9-3.3,5.5-13,3.6-14.1c1.5,1.4-2.5,11.3-4.3,13.4
	c-0.3,0.4-0.8,0.6-0.8,1.4c0.1,1.4,3.2,1.5,4.7,1.5c1,0,2-0.1,3-0.2C30.4,32.4,23.8,31.9,23.7,31.1z"/>
<path class="st29" d="M10,78.2c0,0-0.1-0.8-0.7-0.9l-0.4,0.4l0.9,0.6L10,78.2z"/>
<path class="st30" d="M13.3,76.6c0,0,0.3,1.5,0.4,2s1.8,0.8,2.5,1.5s0.1,1.8,0.1,1.8l-3.3,0.3l-1.9-0.7c-0.6,0.1-1.3,0-1.9-0.2
	C8.7,81,9.3,78,9.7,77.9s2-0.3,2.4-1C12.4,76.6,12.8,76.5,13.3,76.6z"/>
<path class="st31" d="M13.6,79.3c-1-0.6-1.1-1.4-1.5-1.8s-1,0.6-2.4,0.5c0.6-0.2,1.2-0.4,1.7-0.7c0.2-0.1,0.4-0.3,0.7-0.2
	s0.6,0.8,0.8,1.1C13.1,78.6,13.3,78.9,13.6,79.3z"/>
<polygon class="st25" points="13.8,78.6 12.8,79.1 12.8,79.2 14,78.8 "/>
<polygon class="st25" points="14.1,78.9 13.1,79.4 13.2,79.5 14.3,79 "/>
<path class="st16" d="M11.3,80.9c0.2,0,1.3,0.7,1.8,0.8c1.2-0.1,2.3-0.3,3.5-0.7c0,0.3,0,0.5-0.1,0.8l-3.5,0.4l-1.8-0.8
	c-0.6,0.1-1.3,0-1.9-0.2C9.1,81.3,9,81,9,80.6C10,80.7,11.2,80.9,11.3,80.9z"/>
<path class="st32" d="M14.5,79.7c1.3,0.2,2,1,1.6,1.2S16.1,80.2,14.5,79.7z"/>
<path class="st29" d="M38,79.6c0,0-0.5-0.6-1.1-0.4l-0.1,0.6l1.1-0.1L38,79.6z"/>
<path class="st30" d="M39.7,76.3c0,0,1.1,1.1,1.5,1.4s1.9-0.4,2.9-0.3s1.1,1.4,1.1,1.4l-2.5,2.2l-1.9,0.5c0,0-1.1,0.9-1.6,1
	s-1.8-2.7-1.6-3s1.4-1.5,1.4-2.2C39,77,39.3,76.5,39.7,76.3z"/>
<path class="st31" d="M41.6,78.3c-0.8,0-1.6-0.2-2.3-0.6c-0.4-0.1-0.5,1-1.6,1.8c0.4-0.5,0.7-1,1-1.6c0.1-0.2,0.1-0.5,0.5-0.6
	s0.9,0.3,1.3,0.4C40.8,78.1,41.2,78.2,41.6,78.3z"/>
<polygon class="st25" points="41.4,77.6 40.8,78.7 41,78.8 41.6,77.7 "/>
<polygon class="st25" points="41.7,77.7 41.3,78.7 41.4,78.7 42,77.7 "/>
<path class="st16" d="M40.7,81c0.6-0.2,1.3-0.3,1.9-0.3c0.9-0.8,1.7-1.6,2.4-2.6c0.2,0.2,0.3,0.4,0.3,0.7l-2.6,2.4l-1.9,0.5
	c0,0-1.1,0.9-1.6,1c-0.2,0-0.3-0.2-0.6-0.5C39.5,81.6,40.6,81.1,40.7,81z"/>
<path class="st32" d="M42.5,78.2c1.1-0.6,2.2-0.3,2,0S44.2,77.6,42.5,78.2z"/>
</svg>
