<svg id="Layer_1" data-name="Layer 1" xmlns="http://www.w3.org/2000/svg" viewBox="0 0 206.67 172.59"><defs><style>.cls-1{fill:#19c3da;}.cls-2{fill:#666;}</style></defs><path class="cls-1" d="M179,18.71C162.37,6.12,137.6,0,103.34,0s-59,6.12-75.71,18.71C9,32.74,0,54.85,0,86.3s9,53.56,27.63,67.59c16.67,12.58,41.44,18.7,75.71,18.7s59-6.12,75.7-18.7c18.59-14,27.63-36.14,27.63-67.59S197.63,32.74,179,18.71Zm-2.47,131.9c-15.94,12-39.89,17.87-73.23,17.87S46,162.63,30.11,150.61c-17.49-13.21-26-34.24-26-64.31s8.51-51.11,26-64.31C46,10,70,4.12,103.34,4.12S160.63,10,176.57,22c17.49,13.2,26,34.24,26,64.31S194.06,137.4,176.57,150.61Z"/><path class="cls-2" d="M73.42,59.25h31a1.5,1.5,0,0,0,0-3h-31a1.5,1.5,0,0,0,0,3Zm94.16-2.72a12,12,0,0,0-17-.56l-.46.44V48.28A12.17,12.17,0,0,0,138,36.12H66.64A12.17,12.17,0,0,0,54.48,48.28v76a12.17,12.17,0,0,0,12.16,12.15H138a12.17,12.17,0,0,0,12.16-12.15V89.63L167,73.54a12,12,0,0,0,.56-17Zm-20.47,67.79a9.16,9.16,0,0,1-9.16,9.15H66.64a9.16,9.16,0,0,1-9.16-9.15v-76a9.17,9.17,0,0,1,9.16-9.16H138a9.17,9.17,0,0,1,9.16,9.16v11L129.44,76.08h-56a1.5,1.5,0,0,0,0,3h52.86L115.55,89.29H73.42a1.5,1.5,0,0,0,0,3h39L108.47,96a1.39,1.39,0,0,0-.4.65.57.57,0,0,0,0,.14l-1.72,5.68H73.42a1.5,1.5,0,0,0,0,3h32l-3.09,10.22H73.42a1.5,1.5,0,1,0,0,3h30a1.09,1.09,0,0,0,.26,0h.08l20.4-4.71h.06a1.34,1.34,0,0,0,.69-.37l22.18-21.1ZM110.19,100l2.3,2.46,2.81,3,5.73,6.12-8.55,2-4.82-5.16.88-2.93.91-3Zm39.92-14.55-3,2.85-15.49,14.74-2.54,2.42L124,110.37l-4.56-4.87-2.8-3-5-5.32,5.14-4.89,3.15-3,10.76-10.23,1.25-1.2,15-14.31.15.16,3,3.21,9.19,9.82ZM165,71.36l-3.49,3.32L150.11,62.53l-1-1,1-.93,2.52-2.4A9,9,0,1,1,165,71.36Z"/></svg>