<svg id="Layer_1" data-name="Layer 1" xmlns="http://www.w3.org/2000/svg" xmlns:xlink="http://www.w3.org/1999/xlink" viewBox="0 0 100.97 100.97"><defs><style>.cls-1{fill:url(#radial-gradient);}.cls-2{fill:none;stroke:#fff;stroke-width:3.48px;}.cls-3{fill:#fff;}</style><radialGradient id="radial-gradient" cx="-4916.9" cy="1289.37" r="1.16" gradientTransform="matrix(34, 53.5, 53.5, -34, 98231.02, 306921.36)" gradientUnits="userSpaceOnUse"><stop offset="0" stop-color="#cfffda"/><stop offset="1" stop-color="#76e5b5"/></radialGradient></defs><circle class="cls-1" cx="50.48" cy="50.48" r="47"/><circle class="cls-2" cx="50.48" cy="50.48" r="48.74"/><path class="cls-3" d="M37.83,50.1a1.8,1.8,0,0,1-.24,1.2,1.94,1.94,0,0,1-.92.82l-3.62,1.34a.4.4,0,0,0-.3.43V66.57a4.91,4.91,0,0,1-.32,2,2.26,2.26,0,0,1-1.05,1.11c-.93.43-3.76.5-7.25.46A1.8,1.8,0,0,1,23,69.69a2.1,2.1,0,0,1-.73-1.07,1,1,0,0,1,.13-1,1,1,0,0,1,.86-.43h.94c.66,0,4.71.09,4.94.06a.94.94,0,0,0,.6-.15.77.77,0,0,0,.17-.58V54.88a.2.2,0,0,0-.11-.19.32.32,0,0,0-.19-.07l-5,1.83a1.49,1.49,0,0,1-1.2-.09,1.3,1.3,0,0,1-.73-.94,1.06,1.06,0,0,1-.08-.43,1.66,1.66,0,0,1,.21-.81,1.78,1.78,0,0,1,1-.82c1.43-.45,4.81-1.68,5.84-2a.36.36,0,0,0,.3-.38V42.74a.3.3,0,0,0-.34-.34H23.2A1.46,1.46,0,0,1,22.15,42a1.5,1.5,0,0,1,0-2.14,1.46,1.46,0,0,1,1.05-.43h6.38a.3.3,0,0,0,.34-.34V32a1.4,1.4,0,0,1,.41-1,1.35,1.35,0,0,1,1-.4,1.37,1.37,0,0,1,1,.4,1.4,1.4,0,0,1,.41,1v7a.3.3,0,0,0,.34.34h3.37a1.5,1.5,0,1,1,0,3H33.09a.3.3,0,0,0-.34.34V50a.2.2,0,0,0,.11.19.17.17,0,0,0,.19,0l3.11-1.09a1.3,1.3,0,0,1,1.07.13A1.18,1.18,0,0,1,37.83,50.1Z"/><path class="cls-3" d="M59.58,60.58A2.39,2.39,0,0,1,60.05,62a3.78,3.78,0,0,1-.57,1.67,1.44,1.44,0,0,1-1,.72.84.84,0,0,1-.77-.45,120.36,120.36,0,0,1-5.6-12,.15.15,0,0,0-.11,0s-.06,0-.06.08V69.41a1.42,1.42,0,0,1-.43,1,1.4,1.4,0,0,1-1,.43,1.32,1.32,0,0,1-1-.43,1.44,1.44,0,0,1-.41-1V51.73c0-.07,0-.12-.13-.13a.21.21,0,0,0-.21.12,96.05,96.05,0,0,1-8.15,15.14.91.91,0,0,1-.88.4,1.27,1.27,0,0,1-1-.62,2.37,2.37,0,0,1-.37-1.31,2.66,2.66,0,0,1,.51-1.39c1.15-1.65,5.24-8.23,6.36-10.6a54.9,54.9,0,0,0,3-7.06.2.2,0,0,0,0-.2s-.18,0-.26,0h-5.7a1.54,1.54,0,0,1-1.54-1.55,1.48,1.48,0,0,1,.45-1.09,1.5,1.5,0,0,1,1.09-.45h6.51A.3.3,0,0,0,49,42.6v-7a.35.35,0,0,0-.42-.31c-1.41.17-4.88.69-5.4.76a1.4,1.4,0,0,1-1-.26,1.71,1.71,0,0,1-.66-.84,1.05,1.05,0,0,1,.1-.9,1,1,0,0,1,.73-.48c3.14-.45,10.61-2.06,12.95-2.73a2.88,2.88,0,0,1,1-.14,2.29,2.29,0,0,1,1.68.84,1.08,1.08,0,0,1,.22,1,1,1,0,0,1-.72.72c-.92.25-4.17,1.14-5.29,1.38-.2,0-.25.07-.25.29V42.6a.3.3,0,0,0,.34.34h4.84a1.54,1.54,0,0,1,1.54,1.54,1.5,1.5,0,0,1-.45,1.1,1.48,1.48,0,0,1-1.09.45H52.23c-.23,0-.38.09-.34.28C52.42,48.36,57.79,58.14,59.58,60.58Z"/><path class="cls-3" d="M69,30.81a1.7,1.7,0,0,1,1.18-.43,1.74,1.74,0,0,1,1.19.43,1.43,1.43,0,0,1,.42,1v9.46q0,3.28-.09,4.95a81.41,81.41,0,0,0,1.94,12.54,19.6,19.6,0,0,0,4.58,8A1.87,1.87,0,0,1,78.66,68a1.81,1.81,0,0,1-.71,1.3,2.67,2.67,0,0,1-1.4.71,1.22,1.22,0,0,1-1.07-.42c-2.46-2.75-4.11-7.12-5-13.09,0,0,0,0-.06,0s-.07,0-.07,0A30.78,30.78,0,0,1,64.57,70a1.07,1.07,0,0,1-.87.44h-.05a1.76,1.76,0,0,1-1.11-.51A1.79,1.79,0,0,1,62,68.52a1.66,1.66,0,0,1,.31-1,42.06,42.06,0,0,0,3.37-6.25,35.27,35.27,0,0,0,2-7c.39-2.43.65-4.59.78-6.51s.2-4.09.2-6.54V31.82A1.43,1.43,0,0,1,69,30.81Z"/><path class="cls-3" d="M64.55,50.81a1,1,0,0,1-.69.62,1.7,1.7,0,0,1-1.19-.26,1.55,1.55,0,0,1-.65-.85,1.66,1.66,0,0,1,0-1.08,29.25,29.25,0,0,0,1.29-8.44,1,1,0,0,1,.37-.78,1.18,1.18,0,0,1,.88-.25,2.19,2.19,0,0,1,1.1.51,1,1,0,0,1,.32.84A32.23,32.23,0,0,1,64.55,50.81Z"/><path class="cls-3" d="M75.75,40.63a1.29,1.29,0,0,1,.58-1,1.86,1.86,0,0,1,2.43.37,1.15,1.15,0,0,1,.26,1c-.88,4.61-1.54,7.75-2,9.4a1.15,1.15,0,0,1-.59.77,1.82,1.82,0,0,1-1.21.08,1.61,1.61,0,0,1-.91-.52,1,1,0,0,1-.18-.87A79.33,79.33,0,0,0,75.75,40.63Z"/><path class="cls-3" d="M50.48,85.2C36.7,85.2,26.74,82.73,20,77.67,12.55,72,8.92,63.13,8.92,50.48S12.55,28.94,20,23.3c6.71-5.07,16.67-7.53,30.45-7.53s23.75,2.46,30.46,7.53c7.48,5.64,11.11,14.53,11.11,27.18S88.42,72,80.94,77.67C74.23,82.73,64.27,85.2,50.48,85.2Zm0-67.77c-13.41,0-23,2.35-29.45,7.19-7,5.31-10.46,13.77-10.46,25.86S14,71,21,76.35c6.41,4.84,16,7.19,29.45,7.19s23.05-2.35,29.46-7.19C87,71,90.4,62.58,90.4,50.48S87,29.93,79.94,24.62C73.53,19.78,63.9,17.43,50.48,17.43Z"/></svg>