<svg id="Layer_1" data-name="Layer 1" xmlns="http://www.w3.org/2000/svg" viewBox="0 0 230.11 63.15"><defs><style>.cls-1{fill:#fff;}</style></defs><path class="cls-1" d="M0,60.61,5.63,11.54a7.19,7.19,0,0,1,2-4.64,6.46,6.46,0,0,1,4.64-1.45l13-.39a5.16,5.16,0,0,1,2.14.16,5.24,5.24,0,0,1,1.89,1,4.58,4.58,0,0,1,.67,4L28.74,20.82A6.65,6.65,0,0,1,27,25.07a5.55,5.55,0,0,1-4.19,1.28L8.88,26.8,5,60.33a2.72,2.72,0,0,1-.22,1.09,2.68,2.68,0,0,1-.62.91,2.82,2.82,0,0,1-.92.6,2.74,2.74,0,0,1-1.09.2C.54,63.3-.18,62.4,0,60.61ZM25.21,11.38c0-1.29-.44-2-1.84-2l-10.24.33a2.42,2.42,0,0,0-1.64.61,2.38,2.38,0,0,0-.77,1.57V14l14.44-.44Zm-1,8.6.28-2.34L10,18.08l-.51,4.47,12.42-.39A2.29,2.29,0,0,0,24.21,20Zm8.16,38.34,1.4-12.18H24.43a21,21,0,0,1-5.59,10.73A12.28,12.28,0,0,1,11.12,61c-1.63,0-2.35-.78-2.19-2.45s1.12-1.9,3-2.69A12.52,12.52,0,0,0,17,52.06a12.37,12.37,0,0,0,2.57-5.81h-7c-1.68,0-2.46-.67-2.29-2.18s1.12-2.29,2.85-2.35H20.4l.67-5.14V34.51H16c-1.73,0-2.51-.67-2.35-2.12a2.59,2.59,0,0,1,.29-1,2.52,2.52,0,0,1,1.55-1.28,2.5,2.5,0,0,1,1-.09l29.2-.89c1.73,0,2.46.67,2.29,2.23s-1.06,2.18-2.8,2.24H39.59l-.84,7.21h7.66c1.74,0,2.47.67,2.3,2.18a2.44,2.44,0,0,1-.27,1,2.4,2.4,0,0,1-.63.79,2.34,2.34,0,0,1-.89.48,2.66,2.66,0,0,1-1,.1H38.19l-1.4,12.18a2.59,2.59,0,0,1-2.74,2.79C32.43,60.39,31.87,60.11,32.37,58.32Zm2-16.76.84-7.27H26.11l-.34,3.24-.56,4Zm7.78,17.6A2.78,2.78,0,0,1,42.32,58a2.89,2.89,0,0,1,.66-1,3,3,0,0,1,1-.6,2.79,2.79,0,0,1,1.15-.15h2.74a3.28,3.28,0,0,0,2.24-.78,3.11,3.11,0,0,0,1-2.13l3.3-27.94-15,.56a5.65,5.65,0,0,1-4.09-1.12,4.46,4.46,0,0,1-.92-2.15,4.59,4.59,0,0,1,.25-2.32L35.79,9.87a6.4,6.4,0,0,1,1.84-4.2,6,6,0,0,1,4.2-1.34L55.7,3.89A5.35,5.35,0,0,1,58,4.07a5.47,5.47,0,0,1,2,1.1A5.16,5.16,0,0,1,61,7.29a5.11,5.11,0,0,1-.08,2.3L55.7,54.3a9.06,9.06,0,0,1-2.29,5.59A6.86,6.86,0,0,1,51,61.26a7,7,0,0,1-2.8.25H44.34c-1.9.33-2.74-.51-2.51-2.29Zm14-48.73c0-1.29-.5-2-2-2L43,8.75a2.1,2.1,0,0,0-.86.13,2.17,2.17,0,0,0-.74.45,2.08,2.08,0,0,0-.5.7,2.2,2.2,0,0,0-.2.84v2.18l15.27-.5Zm-.72,6.2L40,17.08l-.28,2.4c0,1.28.45,2,1.79,2l13.2-.33Z"/><path class="cls-1" d="M82.72,37.2,80.65,54.69a6.72,6.72,0,0,1-1.85,4.47,6.73,6.73,0,0,1-4.58,1.51H70.86a3,3,0,0,1-2.07-.62,2.11,2.11,0,0,1-.53-.9,2.07,2.07,0,0,1,0-1A2.61,2.61,0,0,1,68.56,57a2.78,2.78,0,0,1,.73-.87,3.53,3.53,0,0,1,2.19-.72h1.9a2.48,2.48,0,0,0,.89-.14A2.33,2.33,0,0,0,75,54.8a2.21,2.21,0,0,0,.7-1.62L77.41,39l-2.69.84-2.13.67c-1.84,0-2.62-.84-2.4-2.68s1.29-2.46,3.3-2.91L78,33.62,79.76,18.7H74.94c-1.62,0-2.29-.73-2.12-2.41a2.63,2.63,0,0,1,.83-1.84,2.6,2.6,0,0,1,.89-.53,2.5,2.5,0,0,1,1-.14h4.75l1.12-9.67A2.7,2.7,0,0,1,84.29,1.2C86,1.15,86.8,2,86.58,3.94l-1.12,9.73h3.36c1.62,0,2.29.72,2.12,2.34a2.56,2.56,0,0,1-.21,1,2.53,2.53,0,0,1-.6.85,2.5,2.5,0,0,1-.89.55,2.63,2.63,0,0,1-1,.15H84.9L83.34,31.94l2.4-.89a5.46,5.46,0,0,1,1.9-.5c1.46,0,2.07.78,1.91,2.45s-.79,1.63-2.07,2.13ZM102,39.88a19.39,19.39,0,0,0-1.06-2.68,6.46,6.46,0,0,1-.61-1.4,10.09,10.09,0,0,1-.4-1.17L97.26,57.87a3.07,3.07,0,0,1-.89,2,2.53,2.53,0,0,1-.87.57,2.42,2.42,0,0,1-1,.16,1.94,1.94,0,0,1-1.74-.62,2.15,2.15,0,0,1-.43-.9,2.25,2.25,0,0,1,0-1L95,35.13v.45a76.18,76.18,0,0,1-5.15,10.5C88,49,86.52,50.72,85.46,51h-.73a1.58,1.58,0,0,1-.8-.13,1.63,1.63,0,0,1-.65-.48,1.83,1.83,0,0,1-.35-.66,1.68,1.68,0,0,1,0-.74,4,4,0,0,1,.45-1.51A7.9,7.9,0,0,1,84.4,46c1.56-2,2.8-3.69,3.86-5.14a34.32,34.32,0,0,0,3-5.25A87.26,87.26,0,0,0,95.87,24.4h-5c-1.84,0-2.68-.67-2.52-2.24a2.65,2.65,0,0,1,.31-1.06,2.73,2.73,0,0,1,.69-.86,3,3,0,0,1,1-.51,2.73,2.73,0,0,1,1.1-.08H97L98.1,9.87,93,10.7c-1.67.28-2.4-.5-2.18-2.4a2.53,2.53,0,0,1,.36-.92,2.46,2.46,0,0,1,.7-.7,5.55,5.55,0,0,1,2.41-.89,108.7,108.7,0,0,0,12.75-2.85l2-.39c1.23,0,2,.55,2.07,1.67a1.09,1.09,0,0,1,0,.62A2.88,2.88,0,0,1,110.7,6a2.71,2.71,0,0,1-.9.85,13.59,13.59,0,0,1-2.13.78l-4.31,1.12-1.23,10.73h3.47c1.79,0,2.57.73,2.41,2.35s-1.18,2.34-3,2.4h-3.47l-1.06,8.94v-.61A1,1,0,0,1,101,32a1.41,1.41,0,0,1,.78-.34c.45,0,1,.34,1.57,1a13.23,13.23,0,0,1,2.07,3.24,17.24,17.24,0,0,1,2.12,5.14,1.87,1.87,0,0,1-.33.75,2,2,0,0,1-.62.54A2.64,2.64,0,0,1,105,43c-1.39.23-2.29-.78-3-2.85ZM128,56.2a3.25,3.25,0,0,1-1,1.84,3.18,3.18,0,0,1-2,.79,3,3,0,0,1-2-.68,6.52,6.52,0,0,1-1.51-2.51,57.86,57.86,0,0,1-4.36-19c-.73,2.51-1.57,5-2.57,7.65A62.27,62.27,0,0,1,110.24,53c-2.79,4.64-5.59,7-7.55,7.09a1.82,1.82,0,0,1-.89-.17,2,2,0,0,1-.73-.55,2.46,2.46,0,0,1-.5-1.73,4.67,4.67,0,0,1,1.84-2.8,25,25,0,0,0,5.32-6.43,47.45,47.45,0,0,0,4-9,145.53,145.53,0,0,0,5.59-29.23l.78-6.38a2.91,2.91,0,0,1,1-2,3.25,3.25,0,0,1,1.9-.78c1.12,0,1.84.34,2.07,1.12a10.54,10.54,0,0,1,0,3.63q-1.35,11.56-3.36,21.46a103.39,103.39,0,0,0,2.63,15.93A35.24,35.24,0,0,0,127.47,54a3.58,3.58,0,0,1,.62,2.46Zm-21.2-24.59a2.24,2.24,0,0,1-.23-1,2.21,2.21,0,0,1,.23-1A82.85,82.85,0,0,0,110,16.46a3.68,3.68,0,0,1,.67-1.62,2.36,2.36,0,0,1,.75-.58,2.29,2.29,0,0,1,.93-.2,2,2,0,0,1,.87.11,2.06,2.06,0,0,1,.75.45,1.74,1.74,0,0,1,.21.84,1.71,1.71,0,0,1-.21.83c-.33,2.18-.84,4.7-1.45,7.55a54,54,0,0,1-1.68,6.2c-.45,1.29-1.46,2.63-2.63,2.63a1.74,1.74,0,0,1-.84-.35A1.77,1.77,0,0,1,106.83,31.61Zm16.78-1.06a2.11,2.11,0,0,1-.23-.95,2.05,2.05,0,0,1,.23-1,100.62,100.62,0,0,0,3.64-13.19,3.13,3.13,0,0,1,.89-1.63,2.32,2.32,0,0,1,.75-.49,2.23,2.23,0,0,1,.88-.18,2.1,2.1,0,0,1,1,.1,2.25,2.25,0,0,1,.83.52,2.82,2.82,0,0,1,0,2.23,118.4,118.4,0,0,1-3.47,12.69c-.67,1.73-1.57,2.63-2.57,2.63a2,2,0,0,1-1.07,0,1.91,1.91,0,0,1-.89-.56Z"/><path class="cls-1" d="M153.09,10.87a2.72,2.72,0,0,1-.63-1.09,2.64,2.64,0,0,1-.09-1.25V8.25a4.15,4.15,0,0,1,1.29-2.42,4.21,4.21,0,0,1,2.51-1.11h.39a2.65,2.65,0,0,1,1.24.21,2.62,2.62,0,0,1,1,.74,2.93,2.93,0,0,1,.67,1.09A2.57,2.57,0,0,1,159.58,8a4.2,4.2,0,0,1-1.29,2.42,4.14,4.14,0,0,1-2.51,1.1h-.34a3,3,0,0,1-2.35-.67Zm-4.36,40.75a2.72,2.72,0,0,1-.55-1,2.53,2.53,0,0,1-.06-1.13l3.29-27.94a3.31,3.31,0,0,1,1.12-2.18,3.22,3.22,0,0,1,2.24-.95,2.69,2.69,0,0,1,1.16.14,2.74,2.74,0,0,1,1,.64,2.47,2.47,0,0,1,.55,1,2.53,2.53,0,0,1,.06,1.16l-3.3,27.94a3,3,0,0,1-.37,1.18,3.05,3.05,0,0,1-.8,1,3.31,3.31,0,0,1-2.24.95,2.51,2.51,0,0,1-1.12-.16A2.74,2.74,0,0,1,148.73,51.62Z"/><path class="cls-1" d="M182.63,46.53a2.05,2.05,0,0,1,.65.81,2,2,0,0,1,.13,1,3.15,3.15,0,0,1-1.84,2.41,13.92,13.92,0,0,1-5.6,1.34c-6.43,0-9.28-2.57-8.61-8.38l2.29-20h-3.24a2.45,2.45,0,0,1-1.9-.67,2.3,2.3,0,0,1-.44-.9,2.25,2.25,0,0,1,0-1,2.63,2.63,0,0,1,.26-1.07,2.76,2.76,0,0,1,.66-.89,2.75,2.75,0,0,1,2-.72h3.25l.56-4.7a3,3,0,0,1,.3-1.25,3.29,3.29,0,0,1,.76-1.05,3.52,3.52,0,0,1,1.12-.66,3.3,3.3,0,0,1,1.29-.17,2.65,2.65,0,0,1,1.15.11,2.48,2.48,0,0,1,1,.62,2.68,2.68,0,0,1,.49,1.07,2.71,2.71,0,0,1,0,1.17l-.55,4.64h7.38a2.28,2.28,0,0,1,1,.16,2.44,2.44,0,0,1,.82.56,2.1,2.1,0,0,1,.48.86,2.2,2.2,0,0,1,0,1,3.29,3.29,0,0,1-1.84,2.46,2.81,2.81,0,0,1-1.07.22h-7.38l-2.52,19.22a4.74,4.74,0,0,0,.67,3,4.73,4.73,0,0,0,3.08.73,10.82,10.82,0,0,0,2.69-.5h1.11a2.07,2.07,0,0,1,1,0A2.2,2.2,0,0,1,182.63,46.53Z"/><path class="cls-1" d="M201.87,48.71a3.56,3.56,0,0,1-.85-1.34,3.48,3.48,0,0,1-.21-1.57,5.2,5.2,0,0,1,4.48-4.58,3.5,3.5,0,0,1,1.57.21A3.64,3.64,0,0,1,209,43.59a3.52,3.52,0,0,1,.22,1.54,4.94,4.94,0,0,1-1.46,3.08,4.35,4.35,0,0,1-1.38,1.06,4.51,4.51,0,0,1-1.69.45,3.41,3.41,0,0,1-2.86-1Zm2.07-13.25a1.78,1.78,0,0,1-.47-.65,1.7,1.7,0,0,1-.14-.8l.33-23,.45-6.93a4.21,4.21,0,0,1,1.23-2.73A4.07,4.07,0,0,1,208,0a2.9,2.9,0,0,1,1.37.13,3,3,0,0,1,1.15.76,3.34,3.34,0,0,1,.75,1.27,3.18,3.18,0,0,1,.08,1.47l-.5,6.93-2.8,23.25a2.4,2.4,0,0,1-.78,1.62,2.85,2.85,0,0,1-1.73.67,2.13,2.13,0,0,1-1.63-.67Z"/><path class="cls-1" d="M214,54.52a3.6,3.6,0,0,1-.67-1.46,3.65,3.65,0,0,1,0-1.61,5.17,5.17,0,0,1,1.9-2.91,5,5,0,0,1,3.25-1.06,3.57,3.57,0,0,1,2.8,1.45,3.47,3.47,0,0,1,.67,1.41,3.38,3.38,0,0,1,0,1.55,5.23,5.23,0,0,1-1.91,3,5,5,0,0,1-3.3,1.06,3.61,3.61,0,0,1-2.74-1.4Zm4-13a1.89,1.89,0,0,1-.41-.73,1.83,1.83,0,0,1,0-.84l3.52-23.13,1.51-6.93a4.49,4.49,0,0,1,1.68-2.57,4.08,4.08,0,0,1,2.85-.9,2.87,2.87,0,0,1,1.35.33,3,3,0,0,1,1.06.9,3.3,3.3,0,0,1,.55,1.29,3.26,3.26,0,0,1-.05,1.39l-1.45,6.93-6,23a2.86,2.86,0,0,1-1.06,1.51,2.66,2.66,0,0,1-1.79.45,2.51,2.51,0,0,1-.94-.16A2.55,2.55,0,0,1,218,41.5Z"/></svg>