<svg id="Layer_1" data-name="Layer 1" xmlns="http://www.w3.org/2000/svg" viewBox="0 0 178.79 61.42"><defs><style>.cls-1{fill:#19c3da;}</style></defs><path class="cls-1" d="M117,30.5a9.56,9.56,0,1,1,9.56-9.56A9.57,9.57,0,0,1,117,30.5Zm0-16a6.48,6.48,0,1,0,6.48,6.48A6.49,6.49,0,0,0,117,14.46Z"/><path class="cls-1" d="M93.67,30.5A9.57,9.57,0,0,1,84.1,21a1.54,1.54,0,0,1,3.08,0,6.48,6.48,0,1,0,6.49-6.49h0a6.43,6.43,0,1,1,0-12.86,1.54,1.54,0,0,1,0,3.08,3.35,3.35,0,1,0,0,6.7h0a9.56,9.56,0,0,1,0,19.12Z"/><path class="cls-1" d="M153.78,30.5A1.54,1.54,0,0,1,152.24,29V18.27a3.81,3.81,0,1,0-7.61,0,1.54,1.54,0,0,1-3.08,0,3.81,3.81,0,0,0-7.62,0V29a1.54,1.54,0,0,1-3.08,0V18.27a6.89,6.89,0,0,1,12.24-4.34,6.88,6.88,0,0,1,12.23,4.34V29A1.54,1.54,0,0,1,153.78,30.5Z"/><path class="cls-1" d="M143.09,30.5A1.54,1.54,0,0,1,141.55,29V18.27a1.54,1.54,0,1,1,3.08,0V29A1.54,1.54,0,0,1,143.09,30.5Z"/><path class="cls-1" d="M168.14,19.85l5.67-5.67a1.55,1.55,0,0,1,2.18,0h0a1.54,1.54,0,0,1-2.18,2.18,6.49,6.49,0,0,0-3.94-1.87,6.49,6.49,0,0,0-6.63,8.93A6.48,6.48,0,0,0,175.71,21v0a1.54,1.54,0,1,1,3.08,0,9.56,9.56,0,1,1-8.62-9.52A9.52,9.52,0,0,1,176,14.18l-2.18,2.18H176l-6.23,5.12-.08.07a1.15,1.15,0,0,1-1.54-1.7Z"/><path class="cls-1" d="M138.37,47.14,144,41.46a1.55,1.55,0,0,1,2.18,0h0A1.54,1.54,0,0,1,144,43.64a6.48,6.48,0,0,0-3.94-1.86,6.6,6.6,0,0,0-4.24,1,6.49,6.49,0,0,0,.54,11.11,6.6,6.6,0,0,0,4.32.64,6.69,6.69,0,0,0,3.75-2.24,6.62,6.62,0,0,0,1.47-4.11v0a1.54,1.54,0,1,1,3.08,0,9.55,9.55,0,1,1-2.8-6.77L144,43.64h2.18L140,48.76l-.08.07a1.16,1.16,0,0,1-1.62-.16A1.14,1.14,0,0,1,138.37,47.14Z"/><path class="cls-1" d="M94.39,57.78A9.56,9.56,0,1,1,104,48.22,9.57,9.57,0,0,1,94.39,57.78Zm0-16a6.48,6.48,0,1,0,6.48,6.48A6.49,6.49,0,0,0,94.39,41.74Z"/><path class="cls-1" d="M125,57.78a1.53,1.53,0,0,1-1.54-1.54v-8a6.48,6.48,0,0,0-13,0v8a1.54,1.54,0,1,1-3.08,0v-8a9.56,9.56,0,0,1,19.12,0v8A1.53,1.53,0,0,1,125,57.78Z"/><path class="cls-1" d="M36.66,61.42c-7.9,0-14.26-.91-19.44-2.78a28.05,28.05,0,0,1-4.32-1.93,24.41,24.41,0,0,1-2.6-1.62l2.16-2.18L29.78,35.45a5.82,5.82,0,0,1,8.25,0l1.39,1.39-1.85,1.84-1.38-1.39a3.27,3.27,0,0,0-2.27-.94,3.17,3.17,0,0,0-2.28,1L14.45,54.62l.62.31a31.4,31.4,0,0,0,4.66,1.82,44.91,44.91,0,0,0,7.48,1.52,74.22,74.22,0,0,0,9.39.54c23.93,0,34.11-8.4,34.11-28.1A44.11,44.11,0,0,0,70.37,25l2.3-2.32a45.9,45.9,0,0,1,.66,8C73.33,58.24,52.4,61.42,36.66,61.42Z"/><path class="cls-1" d="M32.18,55.1a1.28,1.28,0,0,1-.92-.38,1.31,1.31,0,0,1,0-1.85L67.85,16l-.16-.33a19.53,19.53,0,0,0-2.63-3.93c-5.27-6.22-14.29-9.12-28.4-9.12-23.86,0-34,8.41-34,28.1,0,8.2,1.8,14.35,5.49,18.78L6.24,51.35C2,46.42,0,39.66,0,30.71,0,3.18,20.92,0,36.66,0,48.75,0,57.51,2.17,63.45,6.65a22.46,22.46,0,0,1,3.41,3.17,21.31,21.31,0,0,1,2.6,3.65,25.38,25.38,0,0,1,1.5,3.1l-2.59,2.62L33.11,54.72A1.32,1.32,0,0,1,32.18,55.1Z"/><path class="cls-1" d="M21.24,20.44a1,1,0,0,1-.13.65,1.07,1.07,0,0,1-.5.44l-2,.73a.22.22,0,0,0-.16.23v6.87a2.71,2.71,0,0,1-.17,1.07,1.21,1.21,0,0,1-.57.61,14.38,14.38,0,0,1-3.93.25,1,1,0,0,1-.61-.24,1.15,1.15,0,0,1-.39-.58.55.55,0,0,1,.07-.51.54.54,0,0,1,.46-.23h.51c.36,0,2.56,0,2.68,0a.57.57,0,0,0,.33-.08.44.44,0,0,0,.09-.32V23a.11.11,0,0,0-.06-.11l-.1,0-2.73,1a.82.82,0,0,1-.65-.05.71.71,0,0,1-.4-.51.66.66,0,0,1,0-.23.93.93,0,0,1,.11-.44,1,1,0,0,1,.54-.45c.77-.24,2.61-.91,3.17-1.08a.21.21,0,0,0,.16-.21V16.45a.17.17,0,0,0-.19-.19H13.31a.81.81,0,0,1-.57-.23.8.8,0,0,1,0-1.16.77.77,0,0,1,.57-.23h3.45a.17.17,0,0,0,.19-.19V10.64a.77.77,0,1,1,1.53,0v3.81a.17.17,0,0,0,.19.19h1.82a.75.75,0,0,1,.58.23.82.82,0,0,1,0,1.16.78.78,0,0,1-.58.23H18.67a.17.17,0,0,0-.19.19v3.93a.11.11,0,0,0,.06.1s.07,0,.1,0l1.69-.59a.7.7,0,0,1,.58.07A.64.64,0,0,1,21.24,20.44Z"/><path class="cls-1" d="M33,26.12a1.29,1.29,0,0,1,.25.74,2,2,0,0,1-.31.91.77.77,0,0,1-.57.39.46.46,0,0,1-.41-.24,62.48,62.48,0,0,1-3-6.52.07.07,0,0,0-.06,0,0,0,0,0,0,0,0V30.9a.79.79,0,0,1-.79.79.7.7,0,0,1-.54-.23.76.76,0,0,1-.22-.56V21.32a.07.07,0,0,0-.08-.07.12.12,0,0,0-.11.07,51.89,51.89,0,0,1-4.42,8.2.48.48,0,0,1-.47.22.68.68,0,0,1-.52-.34,1.22,1.22,0,0,1-.2-.71,1.37,1.37,0,0,1,.27-.75c.63-.9,2.84-4.46,3.45-5.75a29.41,29.41,0,0,0,1.61-3.82.09.09,0,0,0,0-.11s-.09,0-.14,0H23.58A.78.78,0,0,1,23,18a.85.85,0,0,1,0-1.18.82.82,0,0,1,.59-.25h3.53c.13,0,.19-.06.19-.18V12.58a.19.19,0,0,0-.23-.17l-2.93.41a.77.77,0,0,1-.55-.13.94.94,0,0,1-.35-.46.57.57,0,0,1,.05-.49.51.51,0,0,1,.4-.26c1.7-.24,5.74-1.11,7-1.48a1.59,1.59,0,0,1,.52-.07,1.2,1.2,0,0,1,.91.45.61.61,0,0,1,.12.55.55.55,0,0,1-.39.4c-.5.13-2.26.61-2.87.74-.11,0-.14,0-.14.16v4.14a.17.17,0,0,0,.19.18h2.62a.82.82,0,0,1,.59.25.84.84,0,0,1-.59,1.43H29c-.12,0-.21.05-.18.15A51.21,51.21,0,0,0,33,26.12Z"/><path class="cls-1" d="M38.13,10a.93.93,0,0,1,.64-.24,1,1,0,0,1,.65.24.77.77,0,0,1,.22.55v5.12c0,1.19,0,2.08,0,2.69a45.76,45.76,0,0,0,1,6.79,10.62,10.62,0,0,0,2.49,4.33,1,1,0,0,1,.23.66,1,1,0,0,1-.38.71,1.48,1.48,0,0,1-.76.38.65.65,0,0,1-.58-.23c-1.33-1.49-2.22-3.85-2.73-7.09,0,0,0,0,0,0s0,0,0,0a16.68,16.68,0,0,1-3.11,7.31.58.58,0,0,1-.47.24h0a1,1,0,0,1-.6-.28,1,1,0,0,1-.32-.74.87.87,0,0,1,.17-.52,22.46,22.46,0,0,0,1.82-3.39,18.15,18.15,0,0,0,1.07-3.78c.21-1.32.35-2.49.43-3.53s.1-2.22.1-3.55V10.53A.78.78,0,0,1,38.13,10Z"/><path class="cls-1" d="M35.72,20.82a.57.57,0,0,1-.38.34A.92.92,0,0,1,34.7,21,.93.93,0,0,1,34.35,20a16.1,16.1,0,0,0,.7-4.58.5.5,0,0,1,.2-.42.69.69,0,0,1,.47-.14,1.23,1.23,0,0,1,.6.28.56.56,0,0,1,.17.46A17.68,17.68,0,0,1,35.72,20.82Z"/><path class="cls-1" d="M41.79,15.3a.69.69,0,0,1,.31-.51,1,1,0,0,1,.68-.15,1,1,0,0,1,.64.35.62.62,0,0,1,.14.55c-.48,2.5-.83,4.2-1.07,5.09a.64.64,0,0,1-.32.43,1,1,0,0,1-.65,0,.86.86,0,0,1-.49-.28.52.52,0,0,1-.1-.48A43.16,43.16,0,0,0,41.79,15.3Z"/></svg>