<svg id="Layer_1" data-name="Layer 1" xmlns="http://www.w3.org/2000/svg" viewBox="0 0 298.62 50.47"><defs><style>.cls-1{fill:#19c3da;}</style></defs><path class="cls-1" d="M120.34,44.47a13.15,13.15,0,1,1,13.15-13.14A13.16,13.16,0,0,1,120.34,44.47Zm0-22a8.91,8.91,0,1,0,8.91,8.91A8.92,8.92,0,0,0,120.34,22.42Z"/><path class="cls-1" d="M88.24,44.47A13.16,13.16,0,0,1,75.09,31.33a2.12,2.12,0,0,1,4.24,0,8.91,8.91,0,1,0,8.91-8.91h0a8.85,8.85,0,0,1,0-17.69,2.12,2.12,0,1,1,0,4.24,4.61,4.61,0,0,0,0,9.21h0a13.15,13.15,0,0,1,0,26.29Z"/><path class="cls-1" d="M170.9,44.47a2.12,2.12,0,0,1-2.12-2.12V27.65a5.24,5.24,0,0,0-10.47,0,2.12,2.12,0,1,1-4.23,0,5.24,5.24,0,0,0-10.47,0v14.7a2.12,2.12,0,0,1-4.24,0V27.65a9.46,9.46,0,0,1,16.82-6,9.46,9.46,0,0,1,16.82,6v14.7A2.12,2.12,0,0,1,170.9,44.47Z"/><path class="cls-1" d="M156.19,44.47a2.11,2.11,0,0,1-2.11-2.12V27.65a2.12,2.12,0,1,1,4.23,0v14.7A2.12,2.12,0,0,1,156.19,44.47Z"/><path class="cls-1" d="M190.64,29.83l7.8-7.8a2.11,2.11,0,0,1,3,0h0a2.12,2.12,0,1,1-3,3A8.91,8.91,0,0,0,193,22.46a8.91,8.91,0,0,0-9.11,12.27,9.14,9.14,0,0,0,4,4.45,9,9,0,0,0,5.94.88,8.91,8.91,0,0,0,7.18-8.73v0a2.12,2.12,0,0,1,4.23,0,13.14,13.14,0,1,1-11.85-13.08,13.12,13.12,0,0,1,8,3.78l-3,3h3l-8.56,7-.12.1a1.57,1.57,0,0,1-2.11-2.33Z"/><path class="cls-1" d="M284,29.83l7.8-7.8a2.12,2.12,0,0,1,3,0h0a2.12,2.12,0,0,1-3,3,8.88,8.88,0,0,0-5.42-2.57,8.91,8.91,0,0,0-9.11,12.27,9.14,9.14,0,0,0,4,4.45,9,9,0,0,0,5.94.88,8.89,8.89,0,0,0,7.17-8.73v0a2.12,2.12,0,0,1,4.24,0,13.15,13.15,0,1,1-11.86-13.08,13.15,13.15,0,0,1,8,3.78l-3,3h3l-8.56,7-.12.1A1.58,1.58,0,0,1,284,29.83Z"/><path class="cls-1" d="M223.51,44.47a13.15,13.15,0,1,1,13.14-13.14A13.16,13.16,0,0,1,223.51,44.47Zm0-22a8.91,8.91,0,1,0,8.91,8.91A8.92,8.92,0,0,0,223.51,22.42Z"/><path class="cls-1" d="M265.65,44.47a2.11,2.11,0,0,1-2.11-2.12v-11a8.91,8.91,0,0,0-17.82,0v11a2.12,2.12,0,0,1-4.24,0v-11a13.15,13.15,0,1,1,26.29,0v11A2.12,2.12,0,0,1,265.65,44.47Z"/><path class="cls-1" d="M60.09,25.23c0,22.62-17.15,25.24-30,25.24-6.39,0-11.64-.75-15.86-2.27a23.54,23.54,0,0,1-3.55-1.59A18.58,18.58,0,0,1,8.15,45l0,0,2.07-2.09,14-14.12a5.1,5.1,0,0,1,3.61-1.51h0a5.07,5.07,0,0,1,3.61,1.5l1.4,1.41-2.06,2.06-1.41-1.41a2.21,2.21,0,0,0-1.54-.64h0a2.23,2.23,0,0,0-1.55.65L12.77,44.45a24,24,0,0,0,3.7,1.45,36.26,36.26,0,0,0,6,1.22,60.39,60.39,0,0,0,7.54.43h.06c19,0,27.12-6.68,27.12-22.32a34.14,34.14,0,0,0-.3-4.76l2.54-2.57A36.92,36.92,0,0,1,60.09,25.23Z"/><path class="cls-1" d="M35.78,36.54l-2.22,2.24,2.22-2.24Z"/><path class="cls-1" d="M58.25,13.89,56,16.2,27.46,44.93a1.48,1.48,0,0,1-1,.43,1.46,1.46,0,0,1-1-2.49L54.77,13.25a15.3,15.3,0,0,0-2.07-3.09c-4.21-5-11.59-7.24-22.65-7.24C11,2.92,2.92,9.59,2.92,25.23c0,6.62,1.45,11.63,4.58,15.21L5.43,42.52C1.78,38.43,0,32.73,0,25.23,0,2.61,17.15,0,30.05,0c9.87,0,17,1.79,21.89,5.45a18.56,18.56,0,0,1,5,5.64A21.24,21.24,0,0,1,58.25,13.89Z"/><path class="cls-1" d="M17.57,16.93a.79.79,0,0,1-.1.52.82.82,0,0,1-.4.36l-1.59.59a.18.18,0,0,0-.13.19v5.55a2.18,2.18,0,0,1-.14.87,1,1,0,0,1-.46.49,11.33,11.33,0,0,1-3.18.2.72.72,0,0,1-.49-.19.88.88,0,0,1-.32-.47.43.43,0,0,1,.06-.41.41.41,0,0,1,.37-.19h.42c.28,0,2.06,0,2.16,0A.43.43,0,0,0,14,24.4a.35.35,0,0,0,.08-.26V19a.08.08,0,0,0,0-.08l-.08,0-2.21.8a.63.63,0,0,1-.52,0,.54.54,0,0,1-.32-.41.43.43,0,0,1,0-.19.77.77,0,0,1,.09-.36.78.78,0,0,1,.43-.35c.63-.2,2.11-.74,2.57-.88a.17.17,0,0,0,.13-.17V13.7a.13.13,0,0,0-.15-.15h-2.8a.63.63,0,0,1-.46-.19.62.62,0,0,1-.2-.47.65.65,0,0,1,.2-.47.67.67,0,0,1,.46-.18H14a.13.13,0,0,0,.15-.15V9a.6.6,0,0,1,.18-.44.57.57,0,0,1,.44-.18.61.61,0,0,1,.62.62v3.09a.13.13,0,0,0,.15.15H17a.63.63,0,0,1,.66.65.65.65,0,0,1-.66.66H15.5a.13.13,0,0,0-.15.15v3.18a.08.08,0,0,0,0,.08.1.1,0,0,0,.09,0l1.36-.48a.56.56,0,0,1,.47.06A.49.49,0,0,1,17.57,16.93Z"/><path class="cls-1" d="M27.11,21.52a1.1,1.1,0,0,1,.2.6,1.63,1.63,0,0,1-.25.73.59.59,0,0,1-.46.32.38.38,0,0,1-.34-.2,52.89,52.89,0,0,1-2.45-5.26s0,0,0,0a0,0,0,0,0,0,0v7.67a.64.64,0,0,1-.18.45.66.66,0,0,1-.46.19.61.61,0,0,1-.44-.19.64.64,0,0,1-.18-.45V17.64s0-.05-.06-.05a.08.08,0,0,0-.09.05,41.63,41.63,0,0,1-3.57,6.63.41.41,0,0,1-.38.18.55.55,0,0,1-.42-.28,1.06,1.06,0,0,1-.17-.57A1.12,1.12,0,0,1,18,23c.5-.72,2.29-3.6,2.79-4.64a24.66,24.66,0,0,0,1.3-3.1.1.1,0,0,0,0-.09s-.08,0-.11,0h-2.5a.62.62,0,0,1-.48-.2.65.65,0,0,1-.19-.48A.64.64,0,0,1,19,14a.62.62,0,0,1,.48-.2h2.85a.13.13,0,0,0,.15-.15V10.58a.15.15,0,0,0-.18-.14l-2.37.33a.62.62,0,0,1-.44-.11.76.76,0,0,1-.29-.37.45.45,0,0,1,0-.39.42.42,0,0,1,.31-.21c1.38-.2,4.65-.9,5.68-1.2a1.2,1.2,0,0,1,.41-.06,1,1,0,0,1,.74.37.47.47,0,0,1,.1.44.42.42,0,0,1-.32.32c-.4.11-1.82.5-2.32.61-.09,0-.11,0-.11.12v3.35a.13.13,0,0,0,.15.15H26a.62.62,0,0,1,.48.2.66.66,0,0,1,0,.95.62.62,0,0,1-.48.2H23.88c-.1,0-.16,0-.14.12A40.38,40.38,0,0,0,27.11,21.52Z"/><path class="cls-1" d="M31.23,8.47a.81.81,0,0,1,1,0,.64.64,0,0,1,.18.45v4.14c0,1,0,1.68,0,2.17a36.53,36.53,0,0,0,.85,5.5,8.64,8.64,0,0,0,2,3.49.79.79,0,0,1,.19.54.8.8,0,0,1-.31.57,1.19,1.19,0,0,1-.61.31.51.51,0,0,1-.47-.19,11.13,11.13,0,0,1-2.21-5.73s0,0,0,0l0,0a13.56,13.56,0,0,1-2.52,5.91.46.46,0,0,1-.38.19h0a.76.76,0,0,1-.49-.22.8.8,0,0,1-.26-.6.68.68,0,0,1,.14-.42,18.92,18.92,0,0,0,1.47-2.74,15.3,15.3,0,0,0,.87-3.06c.17-1.06.28-2,.34-2.85s.09-1.8.09-2.87V8.92A.64.64,0,0,1,31.23,8.47Z"/><path class="cls-1" d="M29.28,17.24a.41.41,0,0,1-.3.27.8.8,0,0,1-.52-.11.74.74,0,0,1-.29-.38.75.75,0,0,1,0-.47,12.55,12.55,0,0,0,.57-3.7.41.41,0,0,1,.16-.34.53.53,0,0,1,.39-.11,1,1,0,0,1,.48.22.48.48,0,0,1,.14.37A14.08,14.08,0,0,1,29.28,17.24Z"/><path class="cls-1" d="M34.19,12.78a.56.56,0,0,1,.26-.42.78.78,0,0,1,.54-.12.82.82,0,0,1,.52.28.49.49,0,0,1,.11.45c-.38,2-.67,3.39-.86,4.12a.52.52,0,0,1-.26.34.85.85,0,0,1-.53,0,.68.68,0,0,1-.4-.23.43.43,0,0,1-.08-.38A33.32,33.32,0,0,0,34.19,12.78Z"/></svg>