<svg id="Layer_1" data-name="Layer 1" xmlns="http://www.w3.org/2000/svg" viewBox="0 0 206.67 172.59"><defs><style>.cls-1{fill:#19c3da;}.cls-2{fill:#666;}</style></defs><path class="cls-1" d="M179,18.71C162.37,6.12,137.6,0,103.34,0s-59,6.12-75.71,18.71C9,32.74,0,54.85,0,86.3s9,53.55,27.63,67.58c16.67,12.59,41.44,18.71,75.71,18.71s59-6.12,75.7-18.71c18.59-14,27.63-36.14,27.63-67.58S197.63,32.74,179,18.71ZM176.57,150.6c-15.94,12-39.89,17.88-73.23,17.88S46,162.63,30.11,150.6c-17.49-13.2-26-34.24-26-64.3s8.51-51.11,26-64.31C46,10,70,4.11,103.34,4.11S160.63,10,176.57,22c17.49,13.2,26,34.24,26,64.31S194.06,137.4,176.57,150.6Z"/><path class="cls-2" d="M142.13,76.31H132.7l1.88-6.12a1.47,1.47,0,0,0-.3-1.42,1.51,1.51,0,0,0-1.37-.5l-2.5.4-1.55-2a1.48,1.48,0,0,0-1.43-.57l-1.55.25L110.54,43a15.07,15.07,0,0,0-12.63-6.81h0A15,15,0,0,0,85.25,43L52.78,92.77a15.12,15.12,0,0,0,12.66,23.38H93.81v11.41A12.17,12.17,0,0,0,106,139.72h36.16a12.17,12.17,0,0,0,12.16-12.16V88.47A12.17,12.17,0,0,0,142.13,76.31Zm-17-5.69.38-1.22,1.51-.25,1.54,2a1.44,1.44,0,0,0,.92.56,1.25,1.25,0,0,0,.51,0l1-.16-.52,1.69-.92,3-.22.71-.25.79-.46,1.5-.9,2.94-1.26.63-1.22-1.69a1.5,1.5,0,0,0-1.21-.62,1.14,1.14,0,0,0-.26,0L122,80.9l.49-1.59.92-3ZM93.81,113.15H65.44A12.11,12.11,0,0,1,55.29,94.41L87.76,44.67a12.07,12.07,0,0,1,10.12-5.5h0A12.08,12.08,0,0,1,108,44.63l15,22.76a2.44,2.44,0,0,0-.1.24l-2.67,8.68h-3.5L99.56,50.2a2,2,0,0,0-3.31,0L63.78,100A2,2,0,0,0,65.44,103H93.81Zm0-13.14H67.32L97.91,53.15l15.24,23.16H106A12.18,12.18,0,0,0,93.81,88.47Zm57.48,27.55a9.17,9.17,0,0,1-9.16,9.16H106a9.17,9.17,0,0,1-9.16-9.16V88.47A9.17,9.17,0,0,1,106,79.31h13.35l-.19.63-.74,2.41a1.5,1.5,0,0,0,1.69,1.92l1.7-.29,1.59-.28,1.42,2a1.52,1.52,0,0,0,1.22.63,1.57,1.57,0,0,0,.67-.16l3-1.5a1.48,1.48,0,0,0,.76-.9l1.06-3.47.3-1h10.35a9.17,9.17,0,0,1,9.16,9.16ZM106.13,94.43h19.22a1.5,1.5,0,0,0,0-3H106.13a1.5,1.5,0,0,0,0,3Zm35.39,8.07H106.13A1.48,1.48,0,0,0,105,103a1.45,1.45,0,0,0-.38,1,1.5,1.5,0,0,0,1.5,1.5h35.39a1.4,1.4,0,0,0,.41-.06h0A1.46,1.46,0,0,0,143,104a1.43,1.43,0,0,0-.41-1A1.46,1.46,0,0,0,141.52,102.5Zm0,10.94H106.13a1.5,1.5,0,0,0-1.5,1.5,1.47,1.47,0,0,0,.62,1.21,1.5,1.5,0,0,0,.88.29h35.39a1.5,1.5,0,1,0,0-3Zm0,11H106.13a1.5,1.5,0,0,0,0,3h35.39a1.5,1.5,0,0,0,0-3ZM130.1,46.17a3,3,0,0,0,1.67.63,2.74,2.74,0,0,0,1.72-.33,1.73,1.73,0,0,0,.81-1.25L136.48,35l.6-3.8a3.07,3.07,0,0,0-.91-2.48,4,4,0,0,0-2.67-1.24,4.21,4.21,0,0,0-2.88.74,3,3,0,0,0-1.37,2.28l-.09,3.85.33,10.47A1.72,1.72,0,0,0,130.1,46.17Zm.78,10.58a3.69,3.69,0,0,0,4-3.31,3.68,3.68,0,0,0-3.32-3.9,3.67,3.67,0,0,0-3.89,3.25,3.52,3.52,0,0,0,.84,2.66A3.45,3.45,0,0,0,130.88,56.75Zm10.6-1.67a2.75,2.75,0,0,0,1.75.1,1.8,1.8,0,0,0,1.09-1l4.57-9.42,1.49-3.55a3.07,3.07,0,0,0-.29-2.63,4,4,0,0,0-2.29-1.84,4.13,4.13,0,0,0-3,0A3,3,0,0,0,143,38.63l-1,3.72-2.18,10.24a1.72,1.72,0,0,0,.26,1.48A2.84,2.84,0,0,0,141.48,55.08ZM136,59.91a3.53,3.53,0,0,0,.19,2.79,3.43,3.43,0,0,0,2,1.83,3.68,3.68,0,0,0,4.64-2.27,3.46,3.46,0,0,0-.2-2.72,3.55,3.55,0,0,0-2.09-1.86A3.7,3.7,0,0,0,136,59.91Z"/></svg>