<svg id="Layer_1" data-name="Layer 1" xmlns="http://www.w3.org/2000/svg" viewBox="0 0 100 100"><defs><style>.cls-1{fill:#52605e;}.cls-2{fill:#d57878;}.cls-3{fill:#7d2525;}.cls-4{fill:#a43939;}.cls-5{fill:#605d69;}.cls-6{fill:#101010;}.cls-7{fill:#7e7c88;}.cls-8{fill:#cb3d3d;}.cls-9{fill:#9c3232;}.cls-10{fill:#643873;}.cls-11{fill:#873f23;}.cls-12{fill:#3a5075;}.cls-13{fill:#4e667f;}.cls-14{fill:#728698;}.cls-15{fill:#a7583e;}.cls-16{fill:#65361b;}.cls-17{fill:#60446f;}.cls-18{fill:#e79292;}.cls-19{fill:#e6817e;}.cls-20{fill:#7e5e92;}.cls-21{fill:#444f8a;}.cls-22{fill:#5b6ab9;}.cls-23{fill:#7b6342;}.cls-24{fill:#b67b66;}.cls-25{fill:#636c7b;}.cls-26{fill:#717b8d;}.cls-27{fill:#f4f1c6;}.cls-28{fill:#cf8e48;}.cls-29{fill:#8f96a2;}.cls-30{fill:#6c6870;}.cls-31{fill:#edb052;}.cls-32{fill:#f4d85f;}.cls-33{fill:#8b8f9b;}.cls-34{fill:#4c4e2e;}</style></defs><path class="cls-1" d="M37.36,22.89c-3.7,8.38-6.39,8.2-6.48,8.3A3.4,3.4,0,0,1,27,29.14l1-.44a3.06,3.06,0,0,0,.94,1.18,2.32,2.32,0,0,0,1.79.41,3.16,3.16,0,0,0,1.1-.45c1.87-1.16,4.11-5.19,5.07-7.16Z"/><path class="cls-1" d="M37.77,24.19,53.92,7.5S50.26,5.84,45.09,9s-6.7,9.66-8.27,11.22-2.54,1.64-2.54,1.64Z"/><path class="cls-2" d="M67.67,43.68s2.64.59,3.33-.42c.48-.7,3.21-1.14,3.21-1.14l.37,4-2.66.64-3-.25Z"/><polygon class="cls-3" points="74.65 84.62 74.05 84.64 72.81 48.33 73.41 48.3 74.65 84.62"/><polygon class="cls-4" points="74.48 84.63 74.22 84.63 72.98 48.32 73.24 48.31 74.48 84.63"/><polygon class="cls-5" points="74.86 87 73.99 87.03 73.9 84.19 74.77 84.15 74.86 87"/><polygon class="cls-6" points="74.75 87.52 74.14 87.54 74.13 87.02 74.73 87 74.75 87.52"/><polygon class="cls-5" points="74.83 92.49 74.4 92.5 73.98 87.51 74.91 87.48 74.83 92.49"/><polygon class="cls-7" points="74.66 93.7 74.44 92.5 74.78 92.49 74.66 93.7"/><path class="cls-6" d="M73.36,40.47a7.36,7.36,0,0,0,0,1,5.68,5.68,0,0,1,.06,2.24,5.07,5.07,0,0,0,.12,1.86,5.7,5.7,0,0,1,.22,1.82l-.31,1.07-.6,0-.41-1-.78-8.16,2.06-.07,0,.52C73.5,39.75,73.4,40.1,73.36,40.47Z"/><path class="cls-8" d="M73.73,47.34c-1.07-.14-1.28-3.22-1.12-5a2.59,2.59,0,0,1,.75-1.88,7.36,7.36,0,0,0,0,1,5.68,5.68,0,0,1,.06,2.24,5.07,5.07,0,0,0,.12,1.86A5.7,5.7,0,0,1,73.73,47.34Z"/><path class="cls-9" d="M73,41.72a4.09,4.09,0,0,1,.24-1.12,2.9,2.9,0,0,0-.61,1.75c-.16,1.77,0,4.85,1.12,5a6,6,0,0,0,0-.85C73,45.73,72.85,43.24,73,41.72Z"/><path class="cls-7" d="M74.46,85.6c0,.62,0,1.12-.15,1.13s-.2-.5-.22-1.12,0-1.12.15-1.12S74.44,85,74.46,85.6Z"/><polygon class="cls-10" points="63.95 86.19 66.17 90.7 69.56 88.75 67.28 84.89 63.95 86.19"/><path class="cls-11" d="M60.77,27.56S62,41.34,63.57,42a56.09,56.09,0,0,0,5.64,1.7l0,3s-6.77,1.87-8.48.16-4.16-5-3.63-5.5S60.77,27.56,60.77,27.56Z"/><path class="cls-12" d="M53.92,51.86,45.19,71.73l-8.46,15V88H33.51s.81-5.91,1.75-10.61S41.3,65,41.3,65l2.42-14.1L53.92,49Z"/><path class="cls-13" d="M45.46,49H43.72L42.64,52.8A50.23,50.23,0,0,0,53.92,67L63.1,87.79l4.38-2.63s-6.64-19.67-7.92-21-8.22-14.69-8.22-14.69Z"/><path class="cls-13" d="M60.43,13.23c0,.36-6.67,10.93-8,18.44s-5,16.43-8,19-12.61-1.49-13.86-4.44-.84-7.37,1.24-13.37,3.76-5.64,7-11.55S44.38,9.92,49.38,8,61,9.48,60.43,13.23Z"/><path class="cls-14" d="M49.38,8a10.43,10.43,0,0,0-1.88,1c3.4,0,7.54.68,6.36,4.3-1.32,4.06,1.55,5.31,3.48,5.69,1.65-3.19,3.06-5.52,3.09-5.69C61,9.48,54.38,6,49.38,8Z"/><path class="cls-1" d="M40.51,51.34C36.62,46.4,38.88,33.18,43.72,29c5.34-4.58,8.37-13.46,10.14-15.79s6.85,1.51,6.85,1.51c-.05.36-7,9.42-8.31,16.93s-5,16.43-8,19C43.62,51.31,42.21,51.48,40.51,51.34Z"/><path class="cls-15" d="M56.83,20.4s-4.39-.54-8.41,5.1-6.64,24.11-7.08,25.89,12.58,1.32,12.58,1.32,4.71-10.82,5.1-14a86.73,86.73,0,0,1,2.46-11.63Z"/><path class="cls-16" d="M58.44,14.67s1.29-.39,1.74,1.3,6.07,9,5.06,9.35c-2.3.68-5.92-6.1-5.92-6.1Z"/><path class="cls-17" d="M60.5,18.4c-.08-.12-.08-4.46-.08-4.46s.13-3.21.93-3.43,2.9-1.27,4.2-.77a5.23,5.23,0,0,1,2.1,1.38c.08.12.35,2,.35,2s-.2-.66-1.11,1.11S60.5,18.4,60.5,18.4Z"/><path class="cls-18" d="M63.82,19.57c-.34.41-3.24,3.59-2.6,4.94.19.41-4.09.33-3-2.79s2.8-6.64,2.8-6.64Z"/><path class="cls-19" d="M61.05,15.08s-.43.9-1,2.19c.06,1.52.78,3.7,2.11,4.41a26,26,0,0,1,1.66-2.11Z"/><path class="cls-18" d="M62,12.19a6.62,6.62,0,0,0-1.37,5.47c.47,2.17,1.69,3.69,3.13,3.29s3.85-5.69,3.57-7.41S63.44,10.61,62,12.19Z"/><path class="cls-20" d="M60,17.39s.43-1.88,0-2.57a2.09,2.09,0,0,1-.55-1.76c.12-.67-1.87-2-1.13-2.86s2.63-.67,4.17-2.1,2.85-2,4.61-.57,1.53,2.87,1.53,2.87a1.54,1.54,0,0,1,1.06,1.53,2.09,2.09,0,0,1-1.06,2.19s.64-1.44.12-1.54S68,14.3,68,14.3a14.5,14.5,0,0,1-.88-2.18c-.4-1.27-.64-.08-.88,1.23s-1.5-.54-1.91-1.72-1.82-.82-2.69.26S61.76,15.62,60,17.39Z"/><path class="cls-18" d="M61.62,14.29s-.22-1.56-.8-1.16-.9,2.17-.13,2.5S61.62,14.29,61.62,14.29Z"/><path class="cls-19" d="M61.19,14.21s.31-.72-.17-.63-.54,1.42-.18,1.54S61.19,14.21,61.19,14.21Z"/><path class="cls-21" d="M65.32,15.52a5,5,0,0,1-.12,1.16,3,3,0,0,1-.45,1.15,6,6,0,0,1-.57-.39l.58.25-.09,0A14.34,14.34,0,0,0,65.32,15.52Z"/><path class="cls-21" d="M62.74,18.09c0-.11.17-.14.18,0a1.36,1.36,0,0,0,1,1.1.08.08,0,0,1,.07.1C64,19.53,62.92,19.1,62.74,18.09Z"/><path class="cls-22" d="M64.29,15.31c0,.24-.21.41-.38.38s-.26-.25-.22-.48.21-.41.38-.38S64.34,15.08,64.29,15.31Z"/><path class="cls-22" d="M66.53,15.87c0,.23-.21.4-.38.37s-.27-.25-.22-.48.21-.41.38-.38S66.57,15.63,66.53,15.87Z"/><path class="cls-21" d="M63.31,14.26a1.58,1.58,0,0,1,1.14-.35c.58.1.23.51.1.49S63.33,14.14,63.31,14.26Z"/><path class="cls-21" d="M66.27,14.33s.56.46.56.82c0,0-.65-.33-.71-.55A.21.21,0,0,1,66.27,14.33Z"/><path class="cls-11" d="M58.44,14.67l-2.15,5.71s2.69,7.18,4.48,7.18l4.47-2.24a6.38,6.38,0,0,1-3.11-2.87C60.86,20.22,59.87,14.67,58.44,14.67Z"/><path class="cls-18" d="M74.21,42.12a3.88,3.88,0,0,0-2.52.24c-1,.62,2,.39,1.6.67s-2.09.94-1.71,1.23,2.22-.52,2.19-.29-2,.84-1.52,1.17,1.69-.22,1.78,0-1.49.51-.94.72,1.41.42,1.7.2a1.38,1.38,0,0,0,.47-1.21c-.08-.47.23-.62-.29-1.52S74.21,42.12,74.21,42.12Z"/><polygon class="cls-3" points="38.95 87.92 38.46 87.57 59.29 57.8 59.78 58.14 38.95 87.92"/><polygon class="cls-4" points="38.81 87.82 38.6 87.67 59.43 57.9 59.64 58.04 38.81 87.82"/><rect class="cls-5" x="37.72" y="87.11" width="0.87" height="2.85" transform="translate(57.7 -5.87) rotate(35.01)"/><rect class="cls-6" x="36.93" y="89.61" width="0.52" height="0.6" transform="translate(-57.86 69.12) rotate(-55.19)"/><polygon class="cls-5" points="34.37 94.32 34.02 94.08 36.68 89.83 37.45 90.36 34.37 94.32"/><polygon class="cls-7" points="33.5 95.19 34.05 94.1 34.33 94.3 33.5 95.19"/><path class="cls-6" d="M64.44,51.85a7.11,7.11,0,0,0-.59.74,5.85,5.85,0,0,1-1.3,1.83,5,5,0,0,0-1,1.55,6.18,6.18,0,0,1-.93,1.6l-.89.66-.49-.34.26-1,4.27-7,1.69,1.18-.29.43C65,51.36,64.7,51.58,64.44,51.85Z"/><path class="cls-8" d="M60.61,57.57c-.77-.75.91-3.34,2.1-4.67a2.58,2.58,0,0,1,1.73-1,7.11,7.11,0,0,0-.59.74,5.85,5.85,0,0,1-1.3,1.83,5,5,0,0,0-1,1.55A6.18,6.18,0,0,1,60.61,57.57Z"/><path class="cls-9" d="M63.39,52.62a4.42,4.42,0,0,1,.86-.75,3,3,0,0,0-1.54,1c-1.19,1.33-2.87,3.92-2.1,4.67a5.53,5.53,0,0,0,.49-.7C61,55.83,62.37,53.76,63.39,52.62Z"/><path class="cls-7" d="M38.21,88.59c-.36.5-.71.87-.79.81s.13-.52.49-1,.71-.88.79-.82S38.57,88.08,38.21,88.59Z"/><path class="cls-18" d="M59.92,52.78s.4-1,1.1-1.15,2.94,1.59,2.86,1.9-.73.54-.55.85.1.41-.16.74a5.1,5.1,0,0,1-.74.92C62.24,56.15,59.19,55.43,59.92,52.78Z"/><path class="cls-18" d="M60.07,51.11l-1.62,1.45.11.1A8.06,8.06,0,0,1,59.86,54L61,51.63Z"/><path class="cls-23" d="M54.58,20.61s8,7.61,1.25,17.41c-5.79,8.36-13.9,4.1-13.9,4.1l.71-2.29s12.11,2.82,13-12.62c.23-4.17-4-5.29-4-5.29Z"/><path class="cls-24" d="M53.67,22.32c2.07,1.69,2.85,7.26,2.62,9.18-.66,5.5-1.65,11,0,12.62a37.16,37.16,0,0,1,3.94,5.46l1,1.81-3,2.84-3.2-2.84s-6.91-7.18-8-10.32c-.89-2.61-.42-6.07-.1-8.74.37-3.11,1-7.39,3.47-9.6C51.75,21.58,52.82,21.62,53.67,22.32Z"/><path class="cls-1" d="M39.16,42.07c-3.48-2.84-9.38-1.41-9.43-1.39L29.81,39c.26-.07,6.24-1.54,10.37,1.82Z"/><path class="cls-25" d="M65.63,90.53s-.83-1-1.68-.7l-.22.87h1.79Z"/><path class="cls-26" d="M68.65,85.56s1.7,1.84,2.28,2.42,3.09-.4,4.7-.18,1.61,2.37,1.61,2.37l-4.19,3.29-3.15.65s-1.79,1.39-2.64,1.39-2.66-4.5-2.19-5,2.41-2.19,2.41-3.36A1.86,1.86,0,0,1,68.65,85.56Z"/><path class="cls-25" d="M71.45,88.88c-1.87,0-2.75-.95-3.57-1.12-.62-.13-.86,1.6-2.81,2.77a16.29,16.29,0,0,0,1.72-2.47c.17-.22.24-.72.84-.83s1.44.52,2,.86A9.11,9.11,0,0,0,71.45,88.88Z"/><polygon class="cls-27" points="71.11 87.79 70.13 89.38 70.37 89.54 71.45 87.92 71.11 87.79"/><polygon class="cls-27" points="71.69 87.99 70.91 89.54 71.11 89.54 72.14 87.99 71.69 87.99"/><path class="cls-28" d="M69.79,93.1c.28-.28,2.32-.23,3.08-.37.55-.09,2.85-2.68,4.09-3.85a2.14,2.14,0,0,1,.5,1.11L73,93.56l-3.13.55s-1.79,1.39-2.64,1.39c-.23,0-.53-.33-.84-.82C67.69,93.93,69.6,93.28,69.79,93.1Z"/><path class="cls-29" d="M73,88.76c1.86-.82,3.55-.27,3.24.27S75.66,88.1,73,88.76Z"/><path class="cls-25" d="M33.55,88s-.13-1.23-1-1.39l-.61.57,1.41.9Z"/><path class="cls-26" d="M38.4,85.58s.42,2.29.59,3,2.62,1.23,3.78,2.21.08,2.67.08,2.67L37.91,94l-2.8-1.06a6.72,6.72,0,0,1-2.76-.24c-.67-.42.15-4.86.76-5s3-.52,3.57-1.43A1.71,1.71,0,0,1,38.4,85.58Z"/><path class="cls-25" d="M38.94,89.59c-1.46-.94-1.68-2.13-2.24-2.67s-1.47.83-3.59.77a15.05,15.05,0,0,0,2.58-1.08c.26-.09.56-.44,1.08-.23s.87,1.13,1.13,1.67A8.87,8.87,0,0,0,38.94,89.59Z"/><polygon class="cls-27" points="39.23 88.56 37.66 89.31 37.77 89.56 39.42 88.83 39.23 88.56"/><polygon class="cls-27" points="39.58 89.01 38.19 89.83 38.35 89.93 39.93 89.23 39.58 89.01"/><path class="cls-28" d="M35.53,92.07c.36-.08,1.94,1,2.61,1.25.48.2,3.57-.68,5.13-1a2,2,0,0,1-.16,1.12l-5.27.59-2.73-1.13a6.72,6.72,0,0,1-2.76-.24c-.19-.11-.26-.52-.25-1.06C33.47,91.67,35.29,92.12,35.53,92.07Z"/><path class="cls-29" d="M40.21,90.26c1.87.28,2.92,1.55,2.41,1.82S42.64,91.07,40.21,90.26Z"/><polygon class="cls-23" points="57.64 34.24 59.65 34.82 59.49 35.7 57.07 34.84 57.64 34.24"/><polygon class="cls-30" points="37.97 32.38 37.6 32.23 38.42 30.27 38.79 30.42 37.97 32.38"/><path d="M38.78,30.44l-.37-.15,0-.05a.2.2,0,0,1,.26-.11h0a.21.21,0,0,1,.11.27Z"/><path class="cls-6" d="M37.64,31.8l-1.31-.55a.68.68,0,0,0-.88.37h0L38,32.69h0A.68.68,0,0,0,37.64,31.8Z"/><rect class="cls-6" x="32.67" y="32.71" width="6.12" height="3.77" rx="0.53" transform="translate(-9.91 54.33) rotate(-67.45)"/><path class="cls-31" d="M38.46,33l-1.82,4.37a.51.51,0,0,1-.68.25l-2.5-1a.52.52,0,0,1-.3-.67L35,31.5a.51.51,0,0,1,.68-.26l2.5,1A.52.52,0,0,1,38.46,33Z"/><path class="cls-32" d="M37.73,32.64,35.91,37a.46.46,0,0,1-.58.29l-2-.82a.45.45,0,0,1-.2-.62L35,31.5a.46.46,0,0,1,.58-.3l2,.82A.47.47,0,0,1,37.73,32.64Z"/><path class="cls-30" d="M35.84,35.49,35,35.15a.66.66,0,0,1-.35-.85l.58-1.4a.66.66,0,0,1,.85-.35l.82.34a.65.65,0,0,1,.35.85l-.58,1.4A.65.65,0,0,1,35.84,35.49Z"/><path class="cls-6" d="M34.78,32.54l-.88,2.11a.21.21,0,0,1-.28.12l1-2.51a.2.2,0,0,1,.12.12A.22.22,0,0,1,34.78,32.54Z"/><path class="cls-6" d="M38.14,33.71l-1,2.51a.22.22,0,0,1-.12-.29l.88-2.11A.21.21,0,0,1,38.14,33.71Z"/><rect class="cls-33" x="35.18" y="32.85" width="1.87" height="1.62" transform="matrix(0.92, 0.38, -0.38, 0.92, 15.73, -11.31)"/><path class="cls-1" d="M42.69,32.46c-5.61-3.8-10.26-1.81-10.3-1.78l.81-1.81c.19-.1,4-1.3,10.39,2.25Z"/><path class="cls-1" d="M33.13,33.69l-1,3.93s4.28.44,4.59,1l1.66-2.91S34.25,33.34,33.13,33.69Z"/><path class="cls-34" d="M36.72,34.82,35,38a3.77,3.77,0,0,1,1.79.59l1.66-2.91S37.66,35.28,36.72,34.82Z"/></svg>