<svg id="Layer_1" data-name="Layer 1" xmlns="http://www.w3.org/2000/svg" viewBox="0 0 206.67 207.53"><defs><style>.cls-1{fill:#19c3da;}</style></defs><path class="cls-1" d="M44.27,207.53A11.56,11.56,0,1,1,55.82,196,11.57,11.57,0,0,1,44.27,207.53Zm0-19.39A7.84,7.84,0,1,0,52.1,196,7.84,7.84,0,0,0,44.27,188.14Z"/><path class="cls-1" d="M16.05,207.53A11.56,11.56,0,0,1,4.5,196a1.86,1.86,0,0,1,3.72,0,7.83,7.83,0,1,0,7.83-7.84h0a7.77,7.77,0,1,1,0-15.54,1.86,1.86,0,1,1,0,3.72,4.05,4.05,0,1,0,0,8.1h0a11.56,11.56,0,0,1,0,23.11Z"/><path class="cls-1" d="M88.7,207.53a1.87,1.87,0,0,1-1.86-1.86V192.74a4.6,4.6,0,0,0-9.2,0,1.86,1.86,0,1,1-3.72,0,4.6,4.6,0,0,0-9.2,0v12.93a1.86,1.86,0,1,1-3.72,0V192.74a8.32,8.32,0,0,1,14.78-5.24,8.32,8.32,0,0,1,14.78,5.24v12.93A1.86,1.86,0,0,1,88.7,207.53Z"/><path class="cls-1" d="M75.78,207.53a1.86,1.86,0,0,1-1.86-1.86V192.74a1.86,1.86,0,1,1,3.72,0v12.93A1.86,1.86,0,0,1,75.78,207.53Z"/><path class="cls-1" d="M106.05,194.66l6.86-6.86a1.87,1.87,0,0,1,2.63,0h0a1.86,1.86,0,0,1-2.64,2.63,7.81,7.81,0,0,0-4.76-2.26,7.83,7.83,0,1,0,7.06,7.8v0a1.86,1.86,0,0,1,3.72,0,11.55,11.55,0,1,1-10.42-11.5,11.6,11.6,0,0,1,7,3.32l-2.64,2.63h2.63L108,196.62l-.1.09a1.39,1.39,0,0,1-1.87-2.05Z"/><path class="cls-1" d="M188.1,194.66,195,187.8a1.88,1.88,0,0,1,2.64,0h0a1.86,1.86,0,0,1-2.63,2.63,7.83,7.83,0,0,0-4.77-2.26,7.83,7.83,0,1,0,7.06,7.8v0a1.86,1.86,0,1,1,3.72,0,11.53,11.53,0,1,1-3.38-8.18L195,190.43h2.64l-7.53,6.19-.1.09a1.39,1.39,0,0,1-1.86-2.05Z"/><path class="cls-1" d="M135,207.53A11.56,11.56,0,1,1,146.5,196,11.56,11.56,0,0,1,135,207.53Zm0-19.39a7.84,7.84,0,1,0,7.83,7.83A7.84,7.84,0,0,0,135,188.14Z"/><path class="cls-1" d="M172,207.53a1.87,1.87,0,0,1-1.86-1.86V196a7.83,7.83,0,1,0-15.66,0v9.7a1.86,1.86,0,1,1-3.72,0V196a11.56,11.56,0,0,1,23.11,0v9.7A1.87,1.87,0,0,1,172,207.53Z"/><path class="cls-1" d="M199.59,45.4l-3.17,3.19L92,153.87A2.05,2.05,0,0,1,89,151L194.68,44.51c-.75-1.61-1.55-3.16-2.42-4.66A58.16,58.16,0,0,0,176.56,22C160.63,10,136.67,4.11,103.33,4.11S46,10,30.1,22c-17.49,13.21-26,34.24-26,64.31,0,29.59,8.23,50.44,25.16,63.66l-2.46,2.48c-.15.15-.29.31-.43.47C8.63,138.84,0,117,0,86.29,0,54.85,9,32.74,27.63,18.7,44.3,6.12,69.06,0,103.33,0s59,6.12,75.71,18.7a62.27,62.27,0,0,1,16.23,18.11q1.33,2.22,2.49,4.59C198.41,42.7,199,44,199.59,45.4Z"/><path class="cls-1" d="M206.67,86.29c0,31.45-9,53.56-27.63,67.59-16.68,12.59-41.44,18.71-75.71,18.71-27.45,0-48.79-3.93-64.77-12q-2.37-1.19-4.57-2.49c-1.22-.72-2.41-1.48-3.56-2.26l3-3L87.6,98.27A10.94,10.94,0,0,1,95.43,95h0a11,11,0,0,1,7.81,3.23l15.59,15.59v0l-2.88,2.9-15.6-15.6a6.91,6.91,0,0,0-4.91-2h0a6.88,6.88,0,0,0-4.91,2L37,155.12q2.24,1.29,4.63,2.43c15.26,7.34,35.61,10.93,61.72,10.93,33.34,0,57.3-5.85,73.23-17.88,17.49-13.2,26-34.24,26-64.31,0-12.3-1.43-23.09-4.31-32.45l3.27-3.3C205,60.77,206.67,72.65,206.67,86.29Z"/><path class="cls-1" d="M56.79,53.88a2.85,2.85,0,0,1-.36,1.86A2.89,2.89,0,0,1,55,57l-5.61,2.09a.61.61,0,0,0-.46.66V79.38a7.47,7.47,0,0,1-.5,3.06,3.32,3.32,0,0,1-1.63,1.72c-1.44.67-5.82.78-11.22.71a2.71,2.71,0,0,1-1.73-.66,3.2,3.2,0,0,1-1.13-1.66,1.58,1.58,0,0,1,.2-1.46,1.53,1.53,0,0,1,1.33-.67h1.46c1,0,7.29.14,7.64.09a1.41,1.41,0,0,0,.93-.23,1.15,1.15,0,0,0,.27-.9V61.28a.34.34,0,0,0-.17-.3.66.66,0,0,0-.3-.1L36.3,63.71a2.25,2.25,0,0,1-1.86-.13,2,2,0,0,1-1.13-1.46,1.72,1.72,0,0,1-.13-.66,2.52,2.52,0,0,1,.33-1.26A2.71,2.71,0,0,1,35,58.93c2.21-.7,7.45-2.61,9-3.09a.58.58,0,0,0,.47-.6V42.49A.47.47,0,0,0,44,42H34.14a2.27,2.27,0,0,1-1.62-.66,2.32,2.32,0,0,1,0-3.32,2.27,2.27,0,0,1,1.62-.66H44a.47.47,0,0,0,.53-.53V25.9a2.19,2.19,0,1,1,4.38,0V36.79a.47.47,0,0,0,.53.53h5.21a2.25,2.25,0,0,1,1.66.66,2.39,2.39,0,0,1,0,3.32,2.25,2.25,0,0,1-1.66.66H49.46a.47.47,0,0,0-.53.53V53.71a.31.31,0,0,0,.16.3.31.31,0,0,0,.3,0l4.81-1.69a2,2,0,0,1,1.66.2A1.8,1.8,0,0,1,56.79,53.88Z"/><path class="cls-1" d="M90.47,70.11a3.8,3.8,0,0,1,.73,2.13,5.7,5.7,0,0,1-.89,2.58,2.16,2.16,0,0,1-1.62,1.12,1.34,1.34,0,0,1-1.2-.69,188.69,188.69,0,0,1-8.67-18.61.21.21,0,0,0-.17-.07c-.06,0-.1,0-.1.13V83.78A2.27,2.27,0,0,1,76.3,86a2.08,2.08,0,0,1-1.56-.67,2.22,2.22,0,0,1-.63-1.59V56.41a.2.2,0,0,0-.21-.2.31.31,0,0,0-.33.19C71.06,63.22,63.8,75.74,61,79.83a1.41,1.41,0,0,1-1.37.62,2,2,0,0,1-1.48-1,3.91,3.91,0,0,1-.58-2,4.17,4.17,0,0,1,.79-2.15c1.78-2.56,8.12-12.74,9.86-16.41A88.43,88.43,0,0,0,72.78,48a.28.28,0,0,0-.06-.32c-.08-.08-.27-.08-.41-.08H63.5a2.39,2.39,0,1,1,0-4.78H73.58a.47.47,0,0,0,.53-.53V31.45a.54.54,0,0,0-.65-.48c-2.19.27-7.56,1.08-8.36,1.18a2.26,2.26,0,0,1-1.58-.4,2.65,2.65,0,0,1-1-1.3,1.61,1.61,0,0,1,.15-1.39,1.53,1.53,0,0,1,1.13-.75c4.86-.69,16.42-3.18,20.05-4.23a4.16,4.16,0,0,1,1.47-.21,3.56,3.56,0,0,1,2.6,1.3,1.7,1.7,0,0,1,.34,1.58,1.49,1.49,0,0,1-1.11,1.12c-1.43.38-6.46,1.76-8.2,2.13-.31,0-.39.1-.39.45V42.27a.47.47,0,0,0,.54.53h7.48a2.39,2.39,0,1,1,0,4.78H79.09c-.36,0-.6.15-.53.43C79.38,51.19,87.7,66.33,90.47,70.11Z"/><path class="cls-1" d="M105,24a2.63,2.63,0,0,1,1.83-.68,2.68,2.68,0,0,1,1.85.68,2.19,2.19,0,0,1,.64,1.56V40.23q0,5.09-.13,7.66a125.69,125.69,0,0,0,3,19.42c1.44,5.49,4.47,9.32,7.09,12.35a2.63,2.63,0,0,1-.42,3.91,4.25,4.25,0,0,1-2.17,1.09,1.87,1.87,0,0,1-1.66-.65c-3.8-4.26-6.35-11-7.79-20.26,0,0,0-.07-.1-.07s-.11,0-.11.07C105.54,72,102.6,79,98.19,84.62a1.64,1.64,0,0,1-1.35.68h-.07a2.67,2.67,0,0,1-1.72-.78,2.76,2.76,0,0,1-.91-2.12,2.56,2.56,0,0,1,.47-1.49,63.55,63.55,0,0,0,5.21-9.67,53,53,0,0,0,3.05-10.81q.91-5.62,1.22-10.07t.31-10.13V25.59A2.19,2.19,0,0,1,105,24Z"/><path class="cls-1" d="M98.16,55a1.58,1.58,0,0,1-1.07,1,2.69,2.69,0,0,1-1.85-.41,2.6,2.6,0,0,1-1-3,45.77,45.77,0,0,0,2-13.08,1.48,1.48,0,0,1,.57-1.2,1.84,1.84,0,0,1,1.36-.39,3.27,3.27,0,0,1,1.7.8,1.52,1.52,0,0,1,.5,1.29Q100.16,49.28,98.16,55Z"/><path class="cls-1" d="M115.5,39.22a1.94,1.94,0,0,1,.9-1.46,2.75,2.75,0,0,1,1.92-.43,2.83,2.83,0,0,1,1.83,1,1.8,1.8,0,0,1,.41,1.58q-2,10.73-3.06,14.55a1.73,1.73,0,0,1-.9,1.2,2.88,2.88,0,0,1-1.88.13,2.45,2.45,0,0,1-1.4-.81,1.47,1.47,0,0,1-.28-1.35A122.79,122.79,0,0,0,115.5,39.22Z"/></svg>