<svg id="Layer_1" data-name="Layer 1" xmlns="http://www.w3.org/2000/svg" viewBox="0 0 206.67 172.59"><defs><style>.cls-1{fill:#19c3da;}.cls-2{fill:#666;}</style></defs><path class="cls-1" d="M103.33,172.59c-34.26,0-59-6.12-75.7-18.71C9,139.85,0,117.74,0,86.29S9,32.74,27.63,18.71C44.3,6.12,69.07,0,103.33,0s59,6.12,75.71,18.71c18.59,14,27.63,36.14,27.63,67.58s-9,53.56-27.63,67.59C162.37,166.47,137.6,172.59,103.33,172.59Zm0-168.48C70,4.11,46,10,30.1,22c-17.49,13.2-26,34.24-26,64.3s8.5,51.11,26,64.31c15.94,12,39.89,17.88,73.23,17.88s57.3-5.85,73.23-17.88c17.49-13.2,26-34.24,26-64.31s-8.51-51.1-26-64.3C160.63,10,136.67,4.11,103.33,4.11Z"/><path class="cls-2" d="M104.39,135.3a50.68,50.68,0,0,1-6.16-.38l-1.16-.14-1.55-12.11a35.36,35.36,0,0,1-5.34-1.73l-8.36,8.88-1-.56a48.3,48.3,0,0,1-10-7.27L70,121.2l5.84-10.7A38,38,0,0,1,72.53,106l-12,2.27-.5-1a48.57,48.57,0,0,1-3.81-11.74L56,94.31l11-5.22c-.07-.92-.1-1.86-.1-2.8s0-1.88.1-2.8L56,78.27l.22-1.14A48.21,48.21,0,0,1,60.05,65.4l.5-1,12,2.26a37.73,37.73,0,0,1,3.3-4.53L70,51.39l.84-.79a48.3,48.3,0,0,1,10-7.27l1-.56,8.36,8.88a35.36,35.36,0,0,1,5.34-1.73l1.55-12.11,1.16-.14a50.78,50.78,0,0,1,12.32,0l1.16.14,1.55,12.11a34.19,34.19,0,0,1,5.33,1.73L127,42.77l1,.56a48.3,48.3,0,0,1,10,7.27l.84.79L133,62.09a36.59,36.59,0,0,1,3.29,4.53l12-2.26.5,1a48.64,48.64,0,0,1,3.81,11.73l.22,1.14-11,5.22c.07.93.11,1.86.11,2.8s0,1.87-.11,2.8l11,5.22-.22,1.14a48.57,48.57,0,0,1-3.81,11.74l-.5,1-12-2.27A36.87,36.87,0,0,1,133,110.5l5.85,10.7L138,122a48.3,48.3,0,0,1-10,7.27l-1,.56-8.37-8.88a35.31,35.31,0,0,1-5.33,1.74l-1.55,12.1-1.16.14A50.8,50.8,0,0,1,104.39,135.3Zm-4.64-3.23a46.42,46.42,0,0,0,9.28,0l1.37-10.71v-1.13l1.2-.26a32.66,32.66,0,0,0,6.75-2.19l1-.44,8.22,8.72a45.63,45.63,0,0,0,7.51-5.47l-5.74-10.51.71-.79a34.16,34.16,0,0,0,4.18-5.74l.53-.91,11.77,2.22A45.4,45.4,0,0,0,149.36,96L138.54,90.9l.11-1.06a35.1,35.1,0,0,0,0-7.1l-.11-1.06,10.82-5.12a45.21,45.21,0,0,0-2.86-8.82L134.73,70,134.2,69A34.91,34.91,0,0,0,130,63.29l-.71-.79L135.05,52a45.63,45.63,0,0,0-7.51-5.47l-8.22,8.72-1-.44a32.66,32.66,0,0,0-6.75-2.19l-1.2-.25V51.24L109,40.52a48,48,0,0,0-9.28,0L98.37,51.24v1.12l-1.19.26a33.06,33.06,0,0,0-6.75,2.19l-1,.44-8.22-8.72A45.55,45.55,0,0,0,73.73,52l5.74,10.5-.71.79A34.34,34.34,0,0,0,74.58,69L74,70,62.28,67.74a45.7,45.7,0,0,0-2.87,8.82l10.83,5.12-.11,1.06a35.1,35.1,0,0,0,0,7.1l.11,1.06L59.41,96a45.89,45.89,0,0,0,2.87,8.84L74,102.64l.54.91a33.61,33.61,0,0,0,4.18,5.74l.71.79-5.74,10.51a45.55,45.55,0,0,0,7.5,5.47l8.22-8.72,1,.44A33.06,33.06,0,0,0,97.18,120l1.19.25v1.14Zm4.64-30.66A15.12,15.12,0,1,1,119.5,86.29,15.13,15.13,0,0,1,104.39,101.41Zm0-27.23A12.12,12.12,0,1,0,116.5,86.29,12.13,12.13,0,0,0,104.39,74.18Z"/></svg>