<?xml version="1.0" encoding="utf-8"?>
<!-- Generator: Adobe Illustrator 26.0.0, SVG Export Plug-In . SVG Version: 6.00 Build 0)  -->
<svg version="1.1" id="Layer_1" xmlns="http://www.w3.org/2000/svg" xmlns:xlink="http://www.w3.org/1999/xlink" x="0px" y="0px"
	 viewBox="0 0 50.5 88.8" style="enable-background:new 0 0 50.5 88.8;" xml:space="preserve">
<style type="text/css">
	.st0{fill:#52605E;}
	.st1{fill:#D57878;}
	.st2{fill:#7D2525;}
	.st3{fill:#A43939;}
	.st4{fill:#605D69;}
	.st5{fill:#101010;}
	.st6{fill:#7E7C88;}
	.st7{fill:#CB3D3D;}
	.st8{fill:#9C3232;}
	.st9{fill:#643873;}
	.st10{fill:#873F23;}
	.st11{fill:#3A5075;}
	.st12{fill:#4E667F;}
	.st13{fill:#728698;}
	.st14{fill:#A7583E;}
	.st15{fill:#65361B;}
	.st16{fill:#60446F;}
	.st17{fill:#E79292;}
	.st18{fill:#E6817E;}
	.st19{fill:#7E5E92;}
	.st20{fill:#444F8A;}
	.st21{fill:#5B6AB9;}
	.st22{fill:#7B6342;}
	.st23{fill:#B67B66;}
	.st24{fill:#636C7B;}
	.st25{fill:#717B8D;}
	.st26{fill:#F4F1C6;}
	.st27{fill:#CF8E48;}
	.st28{fill:#8F96A2;}
	.st29{fill:#6C6870;}
	.st30{fill:#EDB052;}
	.st31{fill:#F4D85F;}
	.st32{fill:#8B8F9B;}
	.st33{fill:#4C4E2E;}
</style>
<path class="st0" d="M10.4,16.2c-3.7,8.4-6.4,8.2-6.5,8.3c-1.6,0.4-3.3-0.5-3.9-2L1,22c0.2,0.5,0.5,0.9,0.9,1.2
	c0.5,0.4,1.2,0.5,1.8,0.4c0.4-0.1,0.8-0.2,1.1-0.5C6.7,22,8.9,17.9,9.9,16L10.4,16.2z"/>
<path class="st0" d="M10.8,17.5L26.9,0.8c0,0-3.7-1.7-8.8,1.5S11.4,12,9.8,13.5s-2.5,1.6-2.5,1.6L10.8,17.5z"/>
<path class="st1" d="M40.7,37c0,0,2.6,0.6,3.3-0.4c0.5-0.7,3.2-1.1,3.2-1.1l0.4,4l-2.7,0.6l-3-0.2L40.7,37z"/>
<polygon class="st2" points="47.7,77.9 47.1,77.9 45.8,41.6 46.4,41.6 "/>
<polygon class="st3" points="47.5,77.9 47.2,77.9 46,41.6 46.2,41.6 "/>
<polygon class="st4" points="47.9,80.3 47,80.3 46.9,77.5 47.8,77.4 "/>
<polygon class="st5" points="47.8,80.8 47.1,80.8 47.1,80.3 47.7,80.3 "/>
<polygon class="st4" points="47.8,85.8 47.4,85.8 47,80.8 47.9,80.8 "/>
<polygon class="st6" points="47.7,87 47.4,85.8 47.8,85.8 "/>
<path class="st5" d="M46.4,33.8c0,0.3,0,0.7,0,1c0.2,0.7,0.2,1.5,0.1,2.2c-0.1,0.6,0,1.3,0.1,1.9c0.2,0.6,0.2,1.2,0.2,1.8l-0.3,1.1
	h-0.6l-0.4-1l-0.8-8.2l2.1-0.1V33C46.5,33,46.4,33.4,46.4,33.8z"/>
<path class="st7" d="M46.7,40.6c-1.1-0.1-1.3-3.2-1.1-5c0-0.7,0.3-1.4,0.8-1.9c0,0.3,0,0.7,0,1c0.2,0.7,0.2,1.5,0.1,2.2
	c-0.1,0.6,0,1.3,0.1,1.9C46.7,39.4,46.8,40,46.7,40.6z"/>
<path class="st8" d="M46,35c0-0.4,0.1-0.8,0.2-1.1c-0.4,0.5-0.6,1.1-0.6,1.8c-0.2,1.8,0,4.8,1.1,5c0-0.3,0-0.6,0-0.8
	C46,39,45.8,36.5,46,35z"/>
<path class="st6" d="M47.5,78.9c0,0.6,0,1.1-0.2,1.1s-0.2-0.5-0.2-1.1s0-1.1,0.2-1.1S47.4,78.3,47.5,78.9z"/>
<polygon class="st9" points="37,79.5 39.2,84 42.6,82 40.3,78.2 "/>
<path class="st10" d="M33.8,20.9c0,0,1.2,13.8,2.8,14.4c1.8,0.7,3.7,1.2,5.6,1.7v3c0,0-6.8,1.9-8.5,0.2s-4.2-5-3.6-5.5
	S33.8,20.9,33.8,20.9z"/>
<path class="st11" d="M26.9,45.2L18.2,65L9.7,80v1.3H6.5c0,0,0.8-5.9,1.8-10.6s6-12.4,6-12.4l2.4-14.1l10.2-1.9V45.2z"/>
<path class="st12" d="M18.5,42.3h-1.7l-1.1,3.8c2.9,5.4,6.7,10.2,11.3,14.2l9.2,20.8l4.4-2.6c0,0-6.6-19.7-7.9-21
	s-8.2-14.7-8.2-14.7L18.5,42.3z"/>
<path class="st12" d="M33.4,6.5c0,0.4-6.7,10.9-8,18.4s-5,16.4-8,19S4.8,42.5,3.6,39.5s-0.8-7.4,1.2-13.4s3.8-5.6,7-11.5
	S17.4,3.2,22.4,1.3S34,2.8,33.4,6.5z"/>
<path class="st13" d="M22.4,1.3c-0.7,0.3-1.3,0.6-1.9,1c3.4,0,7.5,0.7,6.4,4.3c-1.3,4.1,1.5,5.3,3.5,5.7c1.7-3.2,3.1-5.5,3.1-5.7
	C34,2.8,27.4-0.7,22.4,1.3z"/>
<path class="st0" d="M13.5,44.6c-3.9-4.9-1.6-18.2,3.2-22.3c5.3-4.6,8.4-13.5,10.1-15.8S33.7,8,33.7,8c0,0.4-7,9.4-8.3,16.9
	s-5,16.4-8,19C16.6,44.6,15.2,44.8,13.5,44.6z"/>
<path class="st14" d="M29.8,13.7c0,0-4.4-0.5-8.4,5.1s-6.6,24.1-7.1,25.9S26.9,46,26.9,46s4.7-10.8,5.1-14c0.6-3.9,1.4-7.8,2.5-11.6
	L29.8,13.7z"/>
<path class="st15" d="M31.4,8c0,0,1.3-0.4,1.7,1.3s6.1,9,5.1,9.3c-2.3,0.7-5.9-6.1-5.9-6.1L31.4,8z"/>
<path class="st16" d="M33.5,11.7c-0.1-0.1-0.1-4.5-0.1-4.5s0.1-3.2,0.9-3.4s2.9-1.3,4.2-0.8c0.8,0.3,1.5,0.8,2.1,1.4
	c0.1,0.1,0.3,2,0.3,2s-0.2-0.7-1.1,1.1S33.5,11.7,33.5,11.7z"/>
<path class="st17" d="M36.8,12.9c-0.3,0.4-3.2,3.6-2.6,4.9c0.2,0.4-4.1,0.3-3-2.8S34,8.4,34,8.4L36.8,12.9z"/>
<path class="st18" d="M34,8.4c0,0-0.4,0.9-1,2.2c0.1,1.5,0.8,3.7,2.1,4.4c0.5-0.7,1.1-1.4,1.7-2.1L34,8.4z"/>
<path class="st17" d="M35,5.5C33.8,7,33.2,9,33.6,11c0.5,2.2,1.7,3.7,3.1,3.3s3.8-5.7,3.6-7.4S36.4,3.9,35,5.5z"/>
<path class="st19" d="M33,10.7c0,0,0.4-1.9,0-2.6c-0.4-0.5-0.6-1.1-0.5-1.8c0.1-0.7-1.9-2-1.1-2.9s2.6-0.7,4.2-2.1
	c1.5-1.4,2.8-2,4.6-0.6s1.5,2.9,1.5,2.9c0.7,0.2,1.1,0.8,1.1,1.5c0.2,0.9-0.3,1.8-1.1,2.2c0,0,0.6-1.4,0.1-1.5S41,7.6,41,7.6
	c-0.4-0.7-0.6-1.4-0.9-2.2c-0.4-1.3-0.6-0.1-0.9,1.2s-1.5-0.5-1.9-1.7s-1.8-0.8-2.7,0.3S34.8,8.9,33,10.7z"/>
<path class="st17" d="M34.6,7.6c0,0-0.2-1.6-0.8-1.2s-0.9,2.2-0.1,2.5S34.6,7.6,34.6,7.6z"/>
<path class="st18" d="M34.2,7.5c0,0,0.3-0.7-0.2-0.6s-0.5,1.4-0.2,1.5S34.2,7.5,34.2,7.5z"/>
<path class="st20" d="M38.3,8.8c0,0.4,0,0.8-0.1,1.2c-0.1,0.4-0.2,0.8-0.4,1.1c-0.2-0.1-0.4-0.2-0.6-0.4l0.6,0.2h-0.1
	C37.9,10.3,38.2,9.6,38.3,8.8z"/>
<path class="st20" d="M35.7,11.4c0-0.1,0.2-0.1,0.2,0c0.1,0.5,0.5,1,1,1.1c0,0,0.1,0,0.1,0.1c0,0,0,0,0,0
	C37,12.8,35.9,12.4,35.7,11.4z"/>
<path class="st21" d="M37.3,8.6c0,0.2-0.2,0.4-0.4,0.4s-0.3-0.2-0.2-0.5s0.2-0.4,0.4-0.4C37.2,8.2,37.3,8.4,37.3,8.6z"/>
<path class="st21" d="M39.5,9.2c0,0.2-0.2,0.4-0.4,0.4s-0.3-0.2-0.2-0.5s0.2-0.4,0.4-0.4S39.6,8.9,39.5,9.2z"/>
<path class="st20" d="M36.3,7.6c0.3-0.3,0.7-0.4,1.1-0.4c0.6,0.1,0.2,0.5,0.1,0.5S36.3,7.4,36.3,7.6z"/>
<path class="st20" d="M39.3,7.6c0,0,0.6,0.5,0.6,0.8c0,0-0.7-0.3-0.7-0.6C39.1,7.8,39.1,7.7,39.3,7.6C39.3,7.6,39.3,7.6,39.3,7.6z"
	/>
<path class="st10" d="M31.4,8l-2.2,5.7c0,0,2.7,7.2,4.5,7.2l4.5-2.2c-1.3-0.6-2.4-1.6-3.1-2.9C33.9,13.5,32.9,8,31.4,8z"/>
<path class="st17" d="M47.2,35.4c-0.8-0.2-1.7-0.1-2.5,0.2c-1,0.6,2,0.4,1.6,0.7s-2.1,0.9-1.7,1.2s2.2-0.5,2.2-0.3s-2,0.8-1.5,1.2
	s1.7-0.2,1.8,0s-1.5,0.5-0.9,0.7s1.4,0.4,1.7,0.2c0.3-0.3,0.5-0.8,0.5-1.2c-0.1-0.5,0.2-0.6-0.3-1.5S47.2,35.4,47.2,35.4z"/>
<polygon class="st2" points="12,81.2 11.5,80.9 32.3,51.1 32.8,51.4 "/>
<polygon class="st3" points="11.8,81.1 11.6,81 32.4,51.2 32.6,51.3 "/>
<rect x="9.7" y="81.4" transform="matrix(0.5737 -0.8191 0.8191 0.5737 -62.2705 44.0222)" class="st4" width="2.8" height="0.9"/>
<rect x="9.9" y="82.9" transform="matrix(0.5709 -0.821 0.821 0.5709 -63.9462 44.0761)" class="st5" width="0.5" height="0.6"/>
<polygon class="st4" points="7.4,87.6 7,87.4 9.7,83.1 10.5,83.7 "/>
<polygon class="st6" points="6.5,88.5 7,87.4 7.3,87.6 "/>
<path class="st5" d="M37.4,45.1c-0.2,0.2-0.4,0.5-0.6,0.7c-0.3,0.7-0.8,1.3-1.3,1.8c-0.4,0.5-0.8,1-1,1.5c-0.2,0.6-0.5,1.1-0.9,1.6
	l-0.9,0.7l-0.5-0.3l0.3-1l4.3-7l1.7,1.2l-0.3,0.4C38,44.7,37.7,44.9,37.4,45.1z"/>
<path class="st7" d="M33.6,50.9c-0.8-0.8,0.9-3.3,2.1-4.7c0.4-0.6,1-0.9,1.7-1c-0.2,0.2-0.4,0.5-0.6,0.7c-0.3,0.7-0.8,1.3-1.3,1.8
	c-0.4,0.5-0.8,1-1,1.5C34.3,49.9,34,50.4,33.6,50.9z"/>
<path class="st8" d="M36.4,45.9c0.3-0.3,0.5-0.5,0.9-0.8c-0.6,0.2-1.1,0.5-1.5,1c-1.2,1.3-2.9,3.9-2.1,4.7c0.2-0.2,0.3-0.5,0.5-0.7
	C34,49.1,35.4,47.1,36.4,45.9z"/>
<path class="st6" d="M11.2,81.9c-0.4,0.5-0.7,0.9-0.8,0.8s0.1-0.5,0.5-1s0.7-0.9,0.8-0.8S11.6,81.4,11.2,81.9z"/>
<path class="st17" d="M32.9,46.1c0,0,0.4-1,1.1-1.2s2.9,1.6,2.9,1.9s-0.7,0.5-0.5,0.8s0.1,0.4-0.2,0.7c-0.2,0.3-0.5,0.6-0.7,0.9
	C35.2,49.4,32.2,48.7,32.9,46.1z"/>
<path class="st17" d="M33.1,44.4l-1.6,1.5l0.1,0.1c0.5,0.4,0.9,0.8,1.3,1.3l1.1-2.4L33.1,44.4z"/>
<path class="st22" d="M27.6,13.9c0,0,8,7.6,1.2,17.4c-5.8,8.4-13.9,4.1-13.9,4.1l0.7-2.3c0,0,12.1,2.8,13-12.6c0.2-4.2-4-5.3-4-5.3
	L27.6,13.9z"/>
<path class="st23" d="M26.7,15.6c2.1,1.7,2.8,7.3,2.6,9.2c-0.7,5.5-1.7,11,0,12.6c1.5,1.7,2.8,3.5,3.9,5.5l1,1.8l-3,2.8L28,44.7
	c0,0-6.9-7.2-8-10.3c-0.9-2.6-0.4-6.1-0.1-8.7c0.4-3.1,1-7.4,3.5-9.6C24.8,14.9,25.8,14.9,26.7,15.6z"/>
<path class="st0" d="M12.2,35.4C8.7,32.5,2.8,34,2.7,34l0.1-1.7c0.3-0.1,6.2-1.5,10.4,1.8L12.2,35.4z"/>
<path class="st24" d="M38.6,83.8c0,0-0.8-1-1.7-0.7L36.7,84h1.8L38.6,83.8z"/>
<path class="st25" d="M41.7,78.9c0,0,1.7,1.8,2.3,2.4s3.1-0.4,4.7-0.2s1.6,2.4,1.6,2.4L46,86.8l-3.2,0.7c0,0-1.8,1.4-2.6,1.4
	s-2.7-4.5-2.2-5s2.4-2.2,2.4-3.4C40.5,79.7,41,79.1,41.7,78.9z"/>
<path class="st24" d="M44.4,82.2c-1.9,0-2.8-0.9-3.6-1.1c-0.6-0.1-0.9,1.6-2.8,2.8c0.6-0.8,1.2-1.6,1.7-2.5c0.2-0.2,0.2-0.7,0.8-0.8
	s1.4,0.5,2,0.9C43.2,81.7,43.8,82,44.4,82.2z"/>
<polygon class="st26" points="44.1,81.1 43.1,82.7 43.4,82.8 44.4,81.2 "/>
<polygon class="st26" points="44.7,81.3 43.9,82.8 44.1,82.8 45.1,81.3 "/>
<path class="st27" d="M42.8,86.4c0.3-0.3,2.3-0.2,3.1-0.4c0.6-0.1,2.8-2.7,4.1-3.8c0.3,0.3,0.4,0.7,0.5,1.1L46,86.9l-3.1,0.6
	c0,0-1.8,1.4-2.6,1.4c-0.2,0-0.5-0.3-0.8-0.8C40.7,87.2,42.6,86.6,42.8,86.4z"/>
<path class="st28" d="M46,82.1c1.9-0.8,3.6-0.3,3.2,0.3S48.7,81.4,46,82.1z"/>
<path class="st24" d="M6.5,81.3c0,0-0.1-1.2-1-1.4l-0.6,0.6l1.4,0.9L6.5,81.3z"/>
<path class="st25" d="M11.4,78.9c0,0,0.4,2.3,0.6,3s2.6,1.2,3.8,2.2s0.1,2.7,0.1,2.7l-4.9,0.5l-2.8-1.1c-0.9,0.1-1.9,0-2.8-0.2
	c-0.7-0.4,0.2-4.9,0.8-5s3-0.5,3.6-1.4C10.1,79,10.7,78.8,11.4,78.9z"/>
<path class="st24" d="M11.9,82.9c-1.5-0.9-1.7-2.1-2.2-2.7S8.2,81,6.1,81c0.9-0.3,1.8-0.6,2.6-1.1c0.3-0.1,0.6-0.4,1.1-0.2
	s0.9,1.1,1.1,1.7C11.2,81.9,11.5,82.4,11.9,82.9z"/>
<polygon class="st26" points="12.2,81.9 10.7,82.6 10.8,82.9 12.4,82.1 "/>
<polygon class="st26" points="12.6,82.3 11.2,83.1 11.3,83.2 12.9,82.5 "/>
<path class="st27" d="M8.5,85.4c0.4-0.1,1.9,1,2.6,1.2c0.5,0.2,3.6-0.7,5.1-1c0.1,0.4,0,0.8-0.2,1.1l-5.3,0.6l-2.7-1.1
	c-0.9,0.1-1.9,0-2.8-0.2c-0.2-0.1-0.3-0.5-0.2-1.1C6.5,85,8.3,85.4,8.5,85.4z"/>
<path class="st28" d="M13.2,83.6c1.9,0.3,2.9,1.6,2.4,1.8S15.6,84.4,13.2,83.6z"/>
<polygon class="st22" points="30.6,27.5 32.7,28.1 32.5,29 30.1,28.1 "/>
<polygon class="st29" points="11,25.7 10.6,25.5 11.4,23.6 11.8,23.7 "/>
<path d="M11.8,23.7l-0.4-0.1v0c0-0.1,0.2-0.2,0.3-0.1l0,0C11.8,23.5,11.8,23.6,11.8,23.7L11.8,23.7z"/>
<path class="st5" d="M10.6,25.1l-1.3-0.5c-0.3-0.1-0.7,0-0.9,0.4l0,0L11,26l0,0C11.1,25.6,11,25.2,10.6,25.1z"/>
<path class="st5" d="M6,29.5L8,24.8c0.1-0.3,0.4-0.4,0.7-0.3l2.5,1c0.3,0.1,0.4,0.4,0.3,0.7L9.5,31c-0.1,0.3-0.4,0.4-0.7,0.3l-2.5-1
	C6,30.1,5.9,29.8,6,29.5z"/>
<path class="st30" d="M11.5,26.3l-1.8,4.4C9.5,30.9,9.2,31,9,30.9c0,0,0,0,0,0l-2.5-1c-0.3-0.1-0.4-0.4-0.3-0.7L8,24.8
	c0.1-0.3,0.4-0.4,0.7-0.3c0,0,0,0,0,0l2.5,1c0.3,0.1,0.4,0.4,0.3,0.7C11.5,26.2,11.5,26.3,11.5,26.3z"/>
<path class="st31" d="M10.7,25.9l-1.8,4.4c-0.1,0.2-0.3,0.4-0.6,0.3l-2-0.8c-0.2-0.1-0.3-0.4-0.2-0.6c0,0,0,0,0,0L8,24.8
	c0.1-0.2,0.3-0.4,0.6-0.3c0,0,0,0,0,0l2,0.8C10.8,25.5,10.8,25.7,10.7,25.9z"/>
<path class="st29" d="M8.8,28.8L8,28.4c-0.3-0.1-0.5-0.5-0.3-0.8l0.6-1.4c0.1-0.3,0.5-0.5,0.8-0.3l0.8,0.3c0.3,0.1,0.5,0.5,0.3,0.8
	l-0.6,1.4C9.5,28.8,9.2,28.9,8.8,28.8z"/>
<path class="st5" d="M7.8,25.8l-0.9,2.1c0,0.1-0.2,0.2-0.3,0.1c0,0,0,0,0,0l1-2.5c0.1,0,0.1,0.1,0.1,0.1C7.8,25.7,7.8,25.8,7.8,25.8
	z"/>
<path class="st5" d="M11.1,27l-1,2.5c-0.1,0-0.2-0.2-0.1-0.3c0,0,0,0,0,0l0.9-2.1C10.9,27,11,27,11.1,27z"/>
<rect x="8.4" y="25.7" transform="matrix(0.3818 -0.9243 0.9243 0.3818 -18.9931 24.9655)" class="st32" width="1.6" height="1.9"/>
<path class="st0" d="M15.7,25.8C10.1,22,5.4,23.9,5.4,24l0.8-1.8c0.2-0.1,4-1.3,10.4,2.2L15.7,25.8z"/>
<path class="st0" d="M6.1,27l-1,3.9c0,0,4.3,0.4,4.6,1l1.7-2.9C11.4,29,7.2,26.6,6.1,27z"/>
<path class="st33" d="M9.7,28.1L8,31.3c0.6,0,1.3,0.2,1.8,0.6l1.7-2.9C11.5,29,10.7,28.6,9.7,28.1z"/>
</svg>
