<svg id="Layer_1" data-name="Layer 1" xmlns="http://www.w3.org/2000/svg" viewBox="0 0 100 100"><defs><style>.cls-1{fill:#513c54;}.cls-2{fill:#a676a8;}.cls-3{fill:#c75656;}.cls-4{fill:#530909;}.cls-5{fill:#861515;}.cls-6{fill:#323038;}.cls-7{fill:#101010;}.cls-8{fill:#585662;}.cls-9{fill:#ba1010;}.cls-10{fill:#7c1010;}.cls-11{fill:#df7474;}.cls-12{fill:#8a3519;}.cls-13{fill:#4d5768;}.cls-14{fill:#656e7e;}.cls-15{fill:#cdd1db;}.cls-16{fill:#bc89bc;}.cls-17{fill:#c0721e;}.cls-18{fill:#613d11;}.cls-19{fill:#91452c;}.cls-20{fill:#de5e5b;}.cls-21{fill:#0f1b7a;}.cls-22{fill:#192ca1;}.cls-23{fill:#0e185a;}.cls-24{fill:#fff;}.cls-25{fill:#3648a2;}.cls-26{fill:#f0ecb5;}.cls-27{fill:#503c20;}.cls-28{fill:#6c573a;}.cls-29{fill:#d7a86d;}.cls-30{fill:#3c4350;}.cls-31{fill:#50645e;}.cls-32{fill:#384541;}.cls-33{fill:#707784;}</style></defs><path class="cls-1" d="M34.6,19.31c-3.43,7.77-5.93,7.61-6,7.7A3.16,3.16,0,0,1,25,25.11l.91-.41a2.84,2.84,0,0,0,.86,1.09,2.2,2.2,0,0,0,1.67.38,2.79,2.79,0,0,0,1-.42c1.73-1.08,3.81-4.82,4.69-6.65Z"/><path class="cls-1" d="M33.22,39.73c-3.43,7.78-5.92,7.62-6,7.71a3.17,3.17,0,0,1-3.63-1.9l.92-.41a2.82,2.82,0,0,0,.86,1.09A2.15,2.15,0,0,0,27,46.6a3,3,0,0,0,1-.42c1.73-1.08,3.81-4.82,4.7-6.65Z"/><path class="cls-2" d="M37.85,19.05s-3.61,1.15-3.3-1c0,0,1.74-6.56,4.73-8.12S47,8.07,47,8.07Z"/><path class="cls-3" d="M59.45,42.93s2.5.2,3-.81c.35-.71,2.81-1.45,2.81-1.45l.84,3.61-2.36.93L61,45.36Z"/><rect class="cls-4" x="67.65" y="46.25" width="0.56" height="33.73" transform="translate(-9.82 12.59) rotate(-9.88)"/><polygon class="cls-5" points="70.92 79.71 70.69 79.75 64.93 46.52 65.16 46.48 70.92 79.71"/><rect class="cls-6" x="70.55" y="79.29" width="0.81" height="2.64" transform="translate(-12.75 13.34) rotate(-9.86)"/><polygon class="cls-7" points="71.54 82.34 70.99 82.43 70.91 81.96 71.46 81.86 71.54 82.34"/><polygon class="cls-6" points="72.25 86.89 71.86 86.96 70.83 82.42 71.69 82.27 72.25 86.89"/><polygon class="cls-8" points="72.25 88.03 71.9 86.95 72.21 86.9 72.25 88.03"/><path class="cls-7" d="M64.27,39.26a5.87,5.87,0,0,0,.1.87,5.36,5.36,0,0,1,.33,2.06,4.86,4.86,0,0,0,.36,1.69,5.77,5.77,0,0,1,.43,1.65l-.15,1-.55.09-.5-.84-1.76-7.4,1.89-.33.08.47C64.31,38.58,64.26,38.91,64.27,39.26Z"/><path class="cls-9" d="M65.49,45.53c-1,0-1.58-2.8-1.67-4.45a2.41,2.41,0,0,1,.45-1.82,5.87,5.87,0,0,0,.1.87,5.36,5.36,0,0,1,.33,2.06,4.86,4.86,0,0,0,.36,1.69A5.77,5.77,0,0,1,65.49,45.53Z"/><path class="cls-10" d="M64.08,40.45a4,4,0,0,1,.08-1.05,2.69,2.69,0,0,0-.34,1.68c.09,1.65.67,4.46,1.67,4.45a4.39,4.39,0,0,0-.14-.78C64.6,44.14,64.15,41.87,64.08,40.45Z"/><path class="cls-8" d="M71,80.6c.1.57.1,1,0,1.06s-.25-.43-.35-1-.1-1,0-1S70.93,80,71,80.6Z"/><path class="cls-11" d="M65.27,40.67a3.55,3.55,0,0,0-2.29.54c-.89.7,1.86.1,1.56.41S62.73,42.75,63.12,43s2-.77,2-.54-1.68,1-1.25,1.26,1.54-.42,1.64-.23-1.3.66-.77.77,1.35.22,1.59,0A1.27,1.27,0,0,0,66.57,43c-.12-.42.14-.6-.46-1.35A12.43,12.43,0,0,0,65.27,40.67Z"/><path class="cls-12" d="M56.8,28.74s1.33-.61,2.12,2.84-1.87,7.81-1.06,9.18,5,.75,5,.75L63,45.62a30.61,30.61,0,0,1-6.82.3c-2.24-.38-3.28-2.33-3-4.83S56.8,28.74,56.8,28.74Z"/><path class="cls-13" d="M47.86,56.17,44.13,71.06S35.9,84.55,35.9,88.57l-2.61-1.43s2.47-18,6.41-20.82l.81-17.39Z"/><path class="cls-14" d="M40.51,52.31l9.85,15.45S51.25,75.33,55,79.1a47.77,47.77,0,0,1,6.85,9.47l2.32-.75L56.47,68.14,49.74,51.87Z"/><path class="cls-15" d="M64.19,87.82C60.83,80.19,54.2,63.05,53.11,60,55.88,66,60.67,77.63,64.19,87.82Z"/><path class="cls-16" d="M47,8.07s7.11,1.24,8,5-8.85,16-8,22.12S44.5,47.3,38.15,48.93s-9.23-1-10.22-5.41-1-7.68,1.37-14.78a46.52,46.52,0,0,1,8.47-14.69C40.6,10.44,47,8.07,47,8.07Z"/><path class="cls-2" d="M55,13.05a4,4,0,0,0-1-1.74c-4.08.61-9,1.81-9.67,4.16C43.1,19.61,44,28.6,39.7,34.58c-3.6,5-5.93,10.93-6.38,14.73a12,12,0,0,0,4.83-.38C44.5,47.3,47.87,41.34,47,35.17S55.84,16.79,55,13.05Z"/><path class="cls-17" d="M53.29,23.85s-1.37-.77-8.41,6.28-6.15,24.09-6.15,24.09,5.15,3.32,9.64,3.32,5.48-.79,5.48-.79,0-13.1,2.49-19.27C59.92,28.7,56.08,23.85,53.29,23.85Z"/><path class="cls-18" d="M56.26,28.92l-.1-1.18c0,.1-1.7,11-3.28,14.69-1.51,3.49-1.24,8.89-1.19,14.92l.5-.08c0-6-.31-11.28,1.15-14.65C55,38.88,56.21,29.33,56.26,28.92Z"/><path class="cls-19" d="M49.74,16.91A8.36,8.36,0,0,1,52.3,19.8c.83,1.74,7.08,5.13,7.08,5.13s-3.64.93-3.74,1-7.06-3-7.06-3Z"/><path class="cls-11" d="M55.24,25.89c.07-.51.24-1,.35-1.74.17-1.1.34-1.91.34-1.91l-2.7-1.18s-.43,1.76-.74,3.17C52.28,25.15,55.19,26.23,55.24,25.89Z"/><path class="cls-20" d="M53.23,21.06l-.18.8A9,9,0,0,0,54,23a6.4,6.4,0,0,0,1.57,1.18c.17-1.1.34-1.91.34-1.91Z"/><path class="cls-21" d="M59.79,17.21s-2.37,2.36-3.27,2.59-2.9.55-2.9.55-1.08,3.55-1.2,4.33c0,0-3.46-.77-1.45-6.33.77-2.12,1.15-3.47,3.55-4.2A4.26,4.26,0,0,1,59.79,17.21Z"/><path class="cls-11" d="M58.13,16.35s1.46.62,1.49,1.75a16.79,16.79,0,0,1-.28,2.18,6.14,6.14,0,0,1-1,3c-.82,1.48-3,.4-4.21-.81-1.34-1.37-1.44-1.76-1.24-3.76S55.81,15.3,58.13,16.35Z"/><path class="cls-22" d="M57.68,21.55c0-.17.22.05.68-.45a1.66,1.66,0,0,1-.19-.83,1.65,1.65,0,0,0,.4.84,1.35,1.35,0,0,1-.8.52h0A.08.08,0,0,1,57.68,21.55Z"/><path class="cls-22" d="M56.85,20.22a.25.25,0,0,0,.35,0,.24.24,0,0,0,0-.34.26.26,0,0,0-.35,0A.23.23,0,0,0,56.85,20.22Z"/><path class="cls-22" d="M58.91,20.34a.26.26,0,0,0,.35,0,.24.24,0,0,0,0-.34.26.26,0,0,0-.36,0A.24.24,0,0,0,58.91,20.34Z"/><path class="cls-23" d="M57.8,19.72a2.26,2.26,0,0,0-.86,0,2.64,2.64,0,0,0-.4.12,2.59,2.59,0,0,0-.38.17,1.16,1.16,0,0,0,.42,0l.4-.11C57.24,19.81,57.52,19.77,57.8,19.72Z"/><path class="cls-23" d="M59.67,19.85a1.73,1.73,0,0,0-.64,0,1.66,1.66,0,0,0-.31.12,2,2,0,0,0-.3.14,1.65,1.65,0,0,0,.32,0c.11,0,.21-.08.31-.1A6.25,6.25,0,0,1,59.67,19.85Z"/><path class="cls-23" d="M57.86,19l-.14.28a1.87,1.87,0,0,0-1.1.15S57.25,18.77,57.86,19Z"/><path class="cls-23" d="M59.54,19.05l-.07.27a1.9,1.9,0,0,0-1.11.15S58.93,18.81,59.54,19.05Z"/><path class="cls-24" d="M58.22,22.38a7.27,7.27,0,0,1-1.54-.49s.55,1.07,1,1.06S58.22,22.38,58.22,22.38Z"/><path class="cls-25" d="M59.67,15.45s1.18.29.92,1.38S57.34,19,55.4,18.59c-.73-.15-.75.27-1.06.52a1.44,1.44,0,0,0-.61,1.83c.57,1.44,1.26.76,1.26.76s-.63.79-2.31.2-1.73-3-.36-4.36a8.34,8.34,0,0,1,3.83-2.13A5.52,5.52,0,0,1,59.67,15.45Z"/><path class="cls-11" d="M53.72,18.74c.2,0,1,.65.75,1.23s-.51.6-1,.28S53.21,18.69,53.72,18.74Z"/><path class="cls-20" d="M54.24,19.56s-.39-.54-.62-.3a.54.54,0,0,0,.1.83C54,20.25,54.5,19.88,54.24,19.56Z"/><path class="cls-20" d="M55.44,20.87c0,.27.31.52.76.56s.83-.14.86-.41-.32-.52-.76-.57S55.46,20.6,55.44,20.87Z"/><path class="cls-20" d="M58.63,21.3c0-.23.3-.4.66-.42a5.4,5.4,0,0,1-.24.91C58.78,21.69,58.6,21.5,58.63,21.3Z"/><path class="cls-26" d="M59.38,24.93s-6.2-1.25-7.76-2.81c-1.84-1.84-1.88-5.21-1.88-5.21a3.32,3.32,0,0,0-1.88.75c-.68.69-4,7.56,3.19,7.12,3.27-.19,5.21,4.14,5.21,4.14Z"/><path class="cls-27" d="M49.53,24.14s2.74,2.25,1.58,6.73-6.32,8.06-6.32,8.06v4s5.32-4.28,7.56-8.22c4.07-7.15-.83-10.56-.83-10.56Z"/><path class="cls-28" d="M54.17,42.73s.5-2.36-.2-2.23-1.74,2.42-1.74,2.42l.88,1.16S53.88,44,54.17,42.73Z"/><polygon class="cls-4" points="48.4 80.44 47.86 80.34 54.23 47.22 54.77 47.32 48.4 80.44"/><polygon class="cls-5" points="48.25 80.41 48.01 80.36 54.38 47.25 54.62 47.29 48.25 80.41"/><rect class="cls-6" x="47.56" y="79.94" width="0.81" height="2.64" transform="translate(16.19 -7.59) rotate(10.87)"/><polygon class="cls-7" points="47.9 83.09 47.35 82.98 47.44 82.51 47.98 82.62 47.9 83.09"/><polygon class="cls-6" points="46.95 87.6 46.56 87.53 47.2 82.92 48.05 83.08 46.95 87.6"/><polygon class="cls-8" points="46.54 88.67 46.59 87.53 46.91 87.59 46.54 88.67"/><path class="cls-7" d="M56.34,40.22a6.34,6.34,0,0,0-.22.85,5.34,5.34,0,0,1-.41,2,4.68,4.68,0,0,0-.27,1.7,5.45,5.45,0,0,1-.18,1.7l-.5.9-.55-.11-.17-1,1-7.54,1.88.36-.09.47C56.61,39.6,56.46,39.89,56.34,40.22Z"/><path class="cls-9" d="M55.26,46.52c-.94-.35-.49-3.18,0-4.75a2.42,2.42,0,0,1,1.06-1.55,6.34,6.34,0,0,0-.22.85,5.34,5.34,0,0,1-.41,2,4.68,4.68,0,0,0-.27,1.7A5.45,5.45,0,0,1,55.26,46.52Z"/><path class="cls-10" d="M55.74,41.27a3.76,3.76,0,0,1,.45-1,2.63,2.63,0,0,0-.91,1.46c-.51,1.57-1,4.4,0,4.75a4.52,4.52,0,0,0,.15-.78C54.92,44.91,55.31,42.63,55.74,41.27Z"/><path class="cls-8" d="M48,81.29c-.11.56-.27,1-.36,1s-.08-.49,0-1.06.27-1,.36-1S48.14,80.72,48,81.29Z"/><path class="cls-11" d="M52.87,42.72s0-1,.49-1.39,3.09.23,3.14.53-.41.73-.15.93.24.3.15.69a4.52,4.52,0,0,1-.28,1.05C56.11,44.7,53.25,45.24,52.87,42.72Z"/><path class="cls-29" d="M54.07,40.5s-9.28.18-6.79-2,6-12.85,4.24-14.07a2.69,2.69,0,0,0-3.66.68c-3.27,3.38-11.17,12-8,16.66,2.44,3.52,13.22,2.32,13.22,2.32C52.45,43,54.07,40.5,54.07,40.5Z"/><path class="cls-26" d="M47.3,39.18c.1-.22.45-.46.66-.7,2.93-3.26,5.45-13,3.56-14.06C53,25.78,49,35.75,47.25,37.85c-.33.44-.79.61-.83,1.36.1,1.4,3.15,1.45,4.67,1.46a24.69,24.69,0,0,0,3-.17C54,40.49,47.42,39.94,47.3,39.18Z"/><path class="cls-30" d="M33.6,86.24s-.09-.83-.65-.93l-.41.38.94.6Z"/><path class="cls-31" d="M36.85,84.63s.29,1.54.4,2,1.76.83,2.53,1.48.06,1.8.06,1.8l-3.31.32-1.88-.71a4.52,4.52,0,0,1-1.86-.16c-.45-.28.11-3.26.51-3.35s2-.34,2.4-1A1.16,1.16,0,0,1,36.85,84.63Z"/><path class="cls-32" d="M37.22,87.33c-1-.63-1.13-1.43-1.51-1.8s-1,.56-2.41.52A10.35,10.35,0,0,0,35,85.33c.17-.06.38-.3.73-.16s.58.76.76,1.12A5.75,5.75,0,0,0,37.22,87.33Z"/><polygon class="cls-26" points="37.41 86.64 36.35 87.14 36.43 87.31 37.54 86.82 37.41 86.64"/><polygon class="cls-26" points="37.65 86.94 36.72 87.49 36.82 87.56 37.88 87.08 37.65 86.94"/><path class="cls-17" d="M34.93,89c.24,0,1.3.66,1.75.84a22.53,22.53,0,0,0,3.45-.65,1.47,1.47,0,0,1-.11.75l-3.54.39-1.83-.76a4.52,4.52,0,0,1-1.86-.16c-.12-.07-.17-.35-.17-.71C33.54,88.72,34.77,89,34.93,89Z"/><path class="cls-33" d="M38.06,87.77c1.26.2,2,1,1.63,1.23S39.7,88.32,38.06,87.77Z"/><path class="cls-30" d="M61.62,87.63s-.55-.62-1.07-.37l-.11.55,1.12-.07Z"/><path class="cls-31" d="M63.31,84.41s1.13,1.08,1.52,1.42,1.91-.38,2.92-.3,1.1,1.41,1.1,1.41l-2.48,2.22-1.94.53s-1.06.94-1.59,1-1.84-2.7-1.57-3,1.42-1.47,1.38-2.19A1.14,1.14,0,0,1,63.31,84.41Z"/><path class="cls-32" d="M65.19,86.37a6.14,6.14,0,0,1-2.28-.56c-.39-.06-.46,1-1.64,1.84a10.53,10.53,0,0,0,1-1.61c.1-.15.12-.46.49-.55s.92.26,1.27.45A5.19,5.19,0,0,0,65.19,86.37Z"/><polygon class="cls-26" points="64.94 85.7 64.38 86.73 64.54 86.82 65.15 85.77 64.94 85.7"/><polygon class="cls-26" points="65.31 85.8 64.88 86.8 65 86.79 65.58 85.78 65.31 85.8"/><path class="cls-17" d="M64.32,89.06a10.82,10.82,0,0,1,1.91-.35,20.59,20.59,0,0,0,2.4-2.56,1.34,1.34,0,0,1,.35.67l-2.62,2.4-1.93.47s-1.06.94-1.59,1c-.15,0-.35-.19-.56-.48C63.05,89.66,64.21,89.19,64.32,89.06Z"/><path class="cls-33" d="M66.14,86.23c1.12-.58,2.2-.31,2,0S67.78,85.71,66.14,86.23Z"/></svg>